<?xml version="1.0" encoding="UTF-8" standalone="no"?>
<!-- Created with Inkscape (http://www.inkscape.org/) -->

<svg
   xmlns:dc="http://purl.org/dc/elements/1.1/"
   xmlns:cc="http://creativecommons.org/ns#"
   xmlns:rdf="http://www.w3.org/1999/02/22-rdf-syntax-ns#"
   xmlns:svg="http://www.w3.org/2000/svg"
   xmlns="http://www.w3.org/2000/svg"
   xmlns:sodipodi="http://sodipodi.sourceforge.net/DTD/sodipodi-0.dtd"
   xmlns:inkscape="http://www.inkscape.org/namespaces/inkscape"
   id="svg4156"
   version="1.1"
   inkscape:version="0.91 r13725"
   width="795"
   height="1210.3125"
   viewBox="0 0 795 1210.3125"
   sodipodi:docname="Anemometer2.svg">
  <metadata
     id="metadata4162">
    <rdf:RDF>
      <cc:Work
         rdf:about="">
        <dc:format>image/svg+xml</dc:format>
        <dc:type
           rdf:resource="http://purl.org/dc/dcmitype/StillImage" />
        <dc:title></dc:title>
      </cc:Work>
    </rdf:RDF>
  </metadata>
  <defs
     id="defs4160" />
  <sodipodi:namedview
     pagecolor="#ffffff"
     bordercolor="#666666"
     borderopacity="1"
     objecttolerance="10"
     gridtolerance="10"
     guidetolerance="10"
     inkscape:pageopacity="0"
     inkscape:pageshadow="2"
     inkscape:window-width="1600"
     inkscape:window-height="837"
     id="namedview4158"
     showgrid="false"
     inkscape:zoom="0.55357604"
     inkscape:cx="397.5"
     inkscape:cy="605.15625"
     inkscape:window-x="-8"
     inkscape:window-y="-8"
     inkscape:window-maximized="1"
     inkscape:current-layer="svg4156" />
  <path
     style="fill:#000000"
     d="m 396.45708,1209.8946 c -0.29558,-0.2956 -3.45137,-0.5654 -7.01287,-0.5998 -3.5615,-0.035 -8.55594,-0.663 -11.09874,-1.3973 -2.54281,-0.7343 -6.55062,-1.3355 -8.90625,-1.3361 -7.34193,0 -34.21046,-5.7689 -39.53643,-8.486 -2.12385,-1.0835 -5.51883,-2.1217 -7.5444,-2.3071 -2.02557,-0.1854 -5.64667,-1.4347 -8.04688,-2.7762 -5.02937,-2.811 -22.15828,-9.8633 -25.42554,-10.4682 -1.21428,-0.2248 -4.68271,-1.6581 -7.70764,-3.1851 -3.02492,-1.527 -5.97026,-2.7763 -6.54521,-2.7763 -1.16692,0 -8.15094,-4.7019 -12.86887,-8.6639 -1.69372,-1.4224 -3.65479,-2.5861 -4.35792,-2.5861 -0.70314,0 -3.68547,-1.2662 -6.62742,-2.8137 -2.94194,-1.5475 -6.88713,-3.004 -8.76707,-3.2365 -6.37969,-0.789 -18.50279,-0.8603 -19.70716,-0.1159 -4.90499,3.0314 -31.44377,-2.6225 -36.00371,-7.6704 -1.76675,-1.9558 -1.65222,-12.4514 0.15972,-14.6345 0.67633,-0.815 1.06081,-3.6568 0.94161,-6.9599 -0.42822,-11.8665 7.65111,-17.0653 26.3477,-16.9535 11.89978,0.071 14.69867,-0.8044 15.47609,-4.8412 1.7015,-8.8351 25.59833,-28.0827 34.87043,-28.0861 2.23199,-9e-4 6.82825,-1.8292 6.86123,-2.7294 0.0112,-0.3039 0.24742,-3.7167 0.52509,-7.5839 0.70696,-9.8461 0.70579,-8.6254 0.0302,-31.4062 -0.3364,-11.3438 -0.54726,-24.8438 -0.46859,-30 0.0787,-5.1563 0.11704,-11.69536 0.0852,-14.5313 -0.33973,-30.29709 0.42236,-139.68541 0.99285,-142.50893 0.26144,-1.29399 1.3716,-5.25442 2.46701,-8.80098 1.09542,-3.54656 2.19464,-7.60035 2.44271,-9.00845 1.00265,-5.69117 12.62112,-20.85792 21.18155,-27.65039 1.94949,-1.54687 6.09918,-4.83886 9.2215,-7.31553 3.12234,-2.47667 7.68374,-5.38264 10.13644,-6.4577 2.45272,-1.07508 4.77834,-2.49609 5.16804,-3.15781 0.38971,-0.66172 2.92096,-1.92723 5.625,-2.81224 2.70405,-0.88501 7.28688,-2.83049 10.18408,-4.32329 2.8972,-1.4928 7.9597,-3.4854 11.25,-4.42799 9.76459,-2.79734 15.79495,-5.73425 16.3327,-7.95437 0.69486,-2.86872 -0.0322,-49.68132 -0.79069,-50.90855 -0.6932,-1.12163 4.39827,-6.57878 6.78007,-7.26704 0.81003,-0.23406 3.89856,-1.11221 6.86341,-1.95142 2.96484,-0.83923 5.43582,-2.02327 5.49106,-2.63121 0.54468,-5.99465 0.89036,-16.24927 1.26979,-37.66785 0.24663,-13.92187 0.63981,-33.32812 0.87374,-43.125 0.23393,-9.79687 0.66929,-32.15625 0.96746,-49.6875 0.29816,-17.53125 0.74757,-43.89844 0.99867,-58.59375 0.81036,-47.42511 1.33194,-67.54481 1.76939,-68.25262 0.2354,-0.38088 0.0933,-5.93607 -0.31579,-12.34485 -0.48193,-7.54992 -0.38493,-13.74731 0.27548,-17.60279 0.79781,-4.65758 0.75659,-6.37106 -0.18973,-7.88636 -0.78205,-1.25225 -1.01483,-3.47147 -0.65917,-6.28402 0.30241,-2.39146 0.78494,-6.24655 1.07229,-8.56686 0.28736,-2.32031 0.65848,-20.46094 0.82472,-40.3125 0.16624,-19.85156 0.60775,-36.8374 0.98113,-37.74631 0.37973,-0.92442 0.1767,-2.25762 -0.4608,-3.02576 -0.82958,-0.99959 -0.92898,-3.22821 -0.36534,-8.19119 0.42588,-3.7499 0.70149,-7.4508 0.61247,-8.22424 -0.0891,-0.77344 0.26754,-3.03345 0.79237,-5.02225 1.28404,-4.86588 1.65269,-12.11857 2.27028,-44.66525 1.01673,-53.58009 0.68092,-60.9375 -2.78132,-60.9375 -2.28848,0 -3.63018,-19.93516 -2.1453,-31.875 1.40502,-11.29765 -28.78769,-24.21768 -34.60351,-14.80749 -0.25323,0.40974 -2.49325,0.74499 -4.9778,0.74499 -5.95345,0 -6.60756,1.01261 -8.08856,12.52176 -0.18954,1.4729 -0.75734,3.17532 -1.26179,3.78315 -0.50446,0.60782 -2.24666,4.46522 -3.87156,8.57199 -1.90642,4.81826 -4.16961,8.6609 -6.38034,10.83308 -1.88429,1.85141 -4.12462,4.40948 -4.97852,5.68458 -3.2534,4.85818 -17.27625,5.74601 -26.4765,1.6763 -2.23965,-0.99071 -5.49778,-1.98878 -7.24028,-2.21793 -11.04524,-1.45252 -32.90747,-16.27711 -47.88006,-32.46705 -3.16058,-3.41755 -8.27676,-4.11425 -20.85726,-2.84028 -18.83361,1.90721 -20.27698,2.48458 -20.11936,8.04815 0.13209,4.66264 -3.49028,20.73774 -6.1862,27.45263 -4.51657,11.24971 -5.21401,12.61444 -8.48888,16.611 -1.77658,2.16809 -3.23016,4.34311 -3.23016,4.8334 0,0.49027 -1.47656,2.32255 -3.28125,4.07172 -1.80468,1.74917 -3.28125,3.67009 -3.28125,4.2687 0,4.53038 -21.98718,19.16042 -37.97314,25.26693 -10.2415,3.91217 -41.789132,6.59645 -46.113782,3.92366 -0.432403,-0.26724 -4.003471,-0.93337 -7.935702,-1.4803 -16.096043,-2.23875 -44.648944,-21.83631 -49.584171,-34.03256 -0.690525,-1.70647 -1.501291,-3.31362 -1.8017,-3.57143 -2.530744,-2.17189 -6.762537,-9.122 -8.847811,-14.53125 -1.39142,-3.60937 -2.916637,-7.40625 -3.389371,-8.4375 -0.472735,-1.03125 -1.463786,-5.1935 -2.202334,-9.24943 -1.69912,-9.33117 -2.460757,-10.07348 -10.742731,-10.47006 -16.1597793,-0.7738 -14.9871951,-10.27668 1.498727,-12.14602 6.915367,-0.78414 7.228843,-1.17603 8.731811,-10.91595 1.257892,-8.15171 5.959896,-22.73889 8.467668,-26.26951 0.972193,-1.36866 1.767586,-2.8874 1.767586,-3.37496 0,-0.48758 1.237622,-2.59499 2.750272,-4.68314 1.512649,-2.08815 2.587336,-3.959574 2.388194,-4.158717 -0.4462,-0.446194 16.323264,-17.705925 22.004138,-22.647441 9.364147,-8.145414 28.371954,-15.02803 45.982396,-16.649958 18.15563,-1.67214 30.36688,0.504202 48.28125,8.604892 2.57812,1.165801 4.9863,2.154098 5.3515,2.196216 2.83998,0.327527 23.14563,16.989785 25.04129,20.548189 0.73167,1.373426 1.66228,2.497139 2.06803,2.497139 1.77165,0 12.43689,20.01049 14.07794,26.41351 0.6377,2.48819 1.45297,4.52399 1.81171,4.52399 0.35873,0 0.93845,2.29079 1.28827,5.09064 0.86164,6.89632 1.10168,7.00474 13.64251,6.16208 15.55114,-1.04495 16.56499,-2.04116 13.55524,-13.31947 -0.86626,-3.2461 -1.95362,-7.78118 -2.41635,-10.07795 -1.25017,-6.20518 -1.15057,-25.810333 0.14341,-28.228141 0.60098,-1.122957 1.08152,-3.572679 1.06785,-5.443825 -0.0137,-1.871146 0.6422,-5.722397 1.4575,-8.558334 0.81529,-2.835937 1.58666,-6.066961 1.71415,-7.180052 0.12749,-1.113091 1.32787,-3.636804 2.6675,-5.608251 1.33964,-1.971447 2.4357,-4.478817 2.4357,-5.571932 0,-1.093117 1.04392,-3.420966 2.31982,-5.173 1.2759,-1.752033 2.72382,-4.086859 3.2176,-5.188502 0.49377,-1.101644 2.61392,-3.80703 4.71142,-6.011969 2.09752,-2.20494 3.81366,-4.289967 3.81366,-4.633393 0,-0.775189 8.7803,-8.476768 13.85528,-12.153072 2.07352,-1.502042 4.06272,-3.204575 4.42046,-3.783406 0.35773,-0.578831 3.03657,-2.123315 5.95297,-3.432185 2.9164,-1.308871 7.48681,-3.3922948 10.15648,-4.6298296 2.66968,-1.2375349 7.09936,-2.7009244 9.84375,-3.2519769 2.74439,-0.5510523 6.0445,-1.3677051 7.33356,-1.814784 1.28906,-0.4470787 6.20302,-1.05400421 10.91992,-1.34872322 l 8.57617,-0.53585277 4.77669,3.98658919 c 5.24655,4.3787469 10.81654,12.3390113 12.46539,17.8147143 0.58224,1.933594 1.35813,3.515625 1.72418,3.515625 1.12874,0 3.60093,10.327065 4.71298,19.6875 0.58195,4.898437 1.65244,10.235632 2.37888,11.860433 0.72643,1.624801 1.33381,5.210739 1.34974,7.96875 0.0159,2.758012 0.45804,8.178629 0.9825,12.045817 0.52446,3.867187 0.93716,10.272456 0.91711,14.233928 l -0.0365,7.202675 2.60551,-0.07406 c 1.43303,-0.04078 4.27684,0.948806 6.31958,2.198999 2.04272,1.2502 6.03436,3.30624 8.8703,4.56897 2.83594,1.26274 7.26563,3.64646 9.84375,5.29714 5.20403,3.33197 7.36993,3.76506 13.67303,2.73403 6.18267,-1.01133 6.63685,-1.52003 7.07777,-7.92747 0.57723,-8.388151 1.491,-10.153688 5.86471,-11.331404 13.76806,-3.707352 27.9486,3.097453 29.16574,13.995744 0.43998,3.9396 0.68151,4.24721 3.93529,5.0121 3.73474,0.87795 7.08239,4.47481 9.45923,10.1634 3.61819,8.65954 16.60548,9.57336 16.60548,1.16841 0,-1.43418 2.65239,-7.72031 6.18751,-14.66433 0.72187,-1.41796 2.00743,-3.94921 2.85681,-5.625 2.77542,-5.475774 7.84758,-11.52094 11.62582,-13.856022 2.0377,-1.259358 3.70488,-2.612019 3.70488,-3.005922 0,-1.549458 9.69435,-0.593029 16.49695,1.627564 3.94894,1.289062 7.56152,2.34375 8.02796,2.34375 4.92118,0 32.93942,24.9814 32.47798,28.95775 -0.63962,5.51182 -4.92271,3.91087 -15.90795,-5.94614 C 524.04705,109.02711 519.27852,105 518.93571,105 c -0.34283,0 -1.96626,-1.00142 -3.60763,-2.22537 -2.8255,-2.10694 -12.0385,-5.972608 -16.10933,-6.759292 -1.03125,-0.199285 -3.20838,-0.621929 -4.83806,-0.939197 -3.48146,-0.677775 -14.5778,7.600289 -15.73915,11.741679 -0.35266,1.25761 -1.53223,3.53789 -2.62126,5.06729 -1.08903,1.5294 -2.03775,3.45357 -2.10827,4.27594 -0.0705,0.82236 -0.88929,3.75951 -1.81948,6.527 -2.18332,6.49583 -1.59796,6.88755 9.31372,6.2328 4.64063,-0.27847 17.29688,-0.7579 28.125,-1.0654 40.9447,-1.16276 61.6218,-2.10286 73.27853,-3.33162 5.58743,-0.58899 13.62837,-1.05875 17.86875,-1.0439 8.69853,0.0305 8.36958,0.32649 9.0751,-8.16743 0.23555,-2.83594 1.10927,-7.05469 1.94158,-9.375 0.83232,-2.32031 1.74377,-5.69531 2.02545,-7.5 0.28168,-1.804687 2.65502,-7.078125 5.27407,-11.71875 2.61906,-4.640625 5.31566,-9.489545 5.99245,-10.775377 1.73448,-3.295354 15.90016,-17.420172 20.95032,-20.889885 2.32031,-1.59417 4.42969,-3.173303 4.6875,-3.509184 1.01362,-1.320566 11.12212,-6.35034 15.97039,-7.946528 2.81785,-0.927716 5.33533,-2.007811 5.59441,-2.400212 3.68069,-5.574811 41.26309,-6.429376 55.33341,-1.258195 3.36433,1.236472 6.64163,2.248131 7.28289,2.248131 1.57508,0 10.26957,4.474264 13.95947,7.183679 1.64138,1.205227 3.36871,2.191321 3.83851,2.191321 0.81844,0 8.96089,6.682496 14.62177,12.000065 1.48204,1.392152 4.43267,4.851498 6.55697,7.687435 2.1243,2.835937 4.358,5.474483 4.96378,5.863434 0.60578,0.388951 1.8467,2.709264 2.75759,5.15625 0.91089,2.446986 2.99581,6.580409 4.63315,9.185385 7.67356,12.208511 11.49442,42.164561 7.03228,55.134001 -0.93937,2.73032 -1.95848,6.75537 -2.26469,8.94456 -0.3062,2.18919 -1.09211,4.9485 -1.74645,6.1318 -0.65435,1.1833 -2.22001,3.99968 -3.47925,6.25863 -1.25924,2.25896 -2.3874,4.67091 -2.50703,5.3599 -0.11963,0.68898 -1.23897,2.79836 -2.48742,4.6875 -1.24845,1.88913 -3.1465,5.41915 -4.21791,7.84447 -2.13814,4.84011 -12.19671,15.35787 -18.40535,19.2456 -2.11352,1.32344 -4.05371,2.7084 -4.31152,3.07768 -0.25781,0.36927 -2.36719,1.62099 -4.6875,2.78158 -2.32031,1.16059 -4.85156,2.64114 -5.625,3.29009 -7.06999,5.93213 -41.38838,11.1207 -54.65296,8.26294 -3.19868,-0.68914 -7.80224,-1.65406 -10.23012,-2.14427 -4.91304,-0.99199 -23.72698,-9.98435 -28.48954,-13.61693 -1.68562,-1.28569 -3.40933,-2.35201 -3.83045,-2.3696 -1.16587,-0.0487 -12.48443,-10.7632 -12.48443,-11.81816 0,-0.50824 -1.29517,-2.16315 -2.87817,-3.67759 -1.58299,-1.51444 -3.77557,-4.23008 -4.87239,-6.03477 -1.09682,-1.80469 -2.34856,-3.52677 -2.78164,-3.82685 -1.89568,-1.31348 -9.24455,-17.77691 -10.21839,-22.8919 -0.58901,-3.09375 -1.64546,-6.95438 -2.34767,-8.57918 -0.7022,-1.6248 -1.2832,-4.36699 -1.29109,-6.09375 -0.031,-6.79257 -2.91151,-7.38746 -28.69962,-5.92724 -21.61614,1.22399 -22.94819,2.36135 -18.26454,15.59488 2.92543,8.26575 3.99126,14.29601 3.89472,22.03575 -0.0503,4.0395 -0.10476,9.42838 -0.12086,11.97529 -0.0161,2.54691 -0.19735,4.90274 -0.40281,5.23518 -0.20545,0.33243 -0.57945,2.70545 -0.8311,5.27337 -0.25165,2.56792 -1.35127,7.05762 -2.44358,9.97709 -1.09232,2.91948 -2.00303,5.6345 -2.0238,6.03338 -0.0208,0.39888 -1.47074,3.42553 -3.22216,6.72589 -1.75142,3.30036 -3.1844,6.751 -3.1844,7.66808 0,8.06029 -28.40784,33.69726 -44.23163,39.91732 -2.22729,0.87551 -4.98811,2.19096 -6.13517,2.92322 -4.75063,3.03274 -14.41954,0.88064 -18.24341,-4.06061 -1.17522,-1.51865 -2.47472,-2.90641 -2.88776,-3.08391 -0.41305,-0.17752 -2.00016,-2.91971 -3.52691,-6.09375 -1.52676,-3.17406 -4.85255,-9.6377 -7.39067,-14.36366 -2.53811,-4.72595 -5.51745,-11.88302 -6.62075,-15.90457 -1.10329,-4.02157 -2.46863,-7.86938 -3.03408,-8.5507 -0.56544,-0.68131 -1.23015,-4.38753 -1.47714,-8.23605 -0.24698,-3.8485 -0.76126,-6.99728 -1.14285,-6.99728 -1.05058,0 -2.33317,-22.27173 -1.94265,-33.73353 0.10795,-3.16845 -2.46827,-7.98522 -4.27084,-7.98522 -0.47177,0 -3.06408,-1.41579 -5.76071,-3.14621 -7.57701,-4.86217 -9.25613,-2.41314 -9.54903,13.92746 -0.22526,12.56807 -0.31343,12.97075 -3.49008,15.93958 l -2.85314,2.66649 0.39889,52.80634 c 0.21939,29.04349 0.4223,53.65009 0.45091,54.68134 0.0286,1.03125 -0.0127,8.83594 -0.0918,17.34375 -0.33513,36.04392 1.00579,162.4924 2.32634,219.375 0.29328,12.63281 0.70058,38.15625 0.90512,56.71875 1.16484,105.71542 1.39842,112.9744 3.6783,114.31286 0.93651,0.5498 2.95721,2.02452 4.49045,3.27716 1.53323,1.25264 4.08344,2.94014 5.66714,3.75 6.1937,3.16731 6.862,5.34936 7.62923,24.90998 0.18202,4.64062 0.45325,8.85937 0.60274,9.375 0.14948,0.51562 0.3617,4.52344 0.47159,8.90625 0.35291,14.07507 1.0945,16.23403 5.85519,17.04584 2.22531,0.37946 5.38937,1.51236 7.03125,2.51754 2.60096,1.59234 7.99758,3.41243 12.94036,4.36432 0.83873,0.16152 4.84818,1.68406 8.90991,3.38341 4.06173,1.69936 7.88078,3.16852 8.48678,3.26482 0.606,0.0963 2.92632,1.39011 5.15625,2.87512 2.22994,1.48502 5.21124,3.28397 6.62511,3.99767 2.88835,1.45801 10.52999,8.76947 16.17932,15.48026 2.0625,2.45004 4.17572,4.93782 4.69605,5.52844 0.52032,0.59061 1.49467,3.17776 2.16522,5.74923 0.67055,2.57146 1.81445,5.33314 2.54199,6.13708 0.72755,0.80393 1.78474,3.7625 2.34932,6.5746 0.56457,2.81211 1.39269,6.37854 1.84023,7.92542 0.44755,1.54688 1.10541,5.34375 1.4619,8.4375 0.35649,3.09375 0.88459,6.02759 1.17354,6.51964 0.28896,0.49205 0.64396,13.99205 0.78889,30 0.22008,24.3076 1.2728,112.11011 1.39993,116.76161 0.0212,0.7734 -0.0381,6.1013 -0.13186,11.8398 -0.0937,5.7385 0.12536,14.6039 0.48672,19.7009 0.39915,5.63 0.27747,10.6418 -0.31002,12.7695 -0.66629,2.4131 -0.665,3.5023 0.004,3.5023 0.62375,0 0.77842,2.0961 0.43237,5.8594 -0.80898,8.7977 0.47425,22.3817 2.19535,23.2395 0.77344,0.3854 2.46094,1.1651 3.75,1.7326 1.28906,0.5674 3.60938,1.7834 5.15625,2.702 1.54688,0.9187 5.55469,3.2232 8.90625,5.1211 3.35156,1.8979 7.45165,5.0513 9.11128,7.0075 3.62527,4.273 8.66042,11.6852 8.68416,12.7838 0.009,0.4343 0.86081,1.8623 1.89206,3.1733 1.03125,1.3111 1.875,3.1557 1.875,4.0993 0,2.6645 2.76785,3.5565 12.38149,3.9899 15.51577,0.6994 21.57123,6.1268 22.53723,20.1999 1.00874,14.6955 -6.21555,20.88 -22.73122,19.4595 -26.8405,-2.3087 -38.07424,-1.7026 -42.63293,2.3 -1.67431,1.4701 -5.27484,3.7063 -8.00116,4.9694 -2.72634,1.2632 -5.2107,2.692 -5.52082,3.1754 -0.70111,1.0927 -26.42413,14.2499 -27.85928,14.2499 -0.575,0 -2.05156,0.7693 -3.28125,1.7096 -4.24782,3.2482 -37.38761,13.2806 -43.89295,13.2879 -1.25517,0 -4.09925,0.8822 -6.32018,1.9573 -3.91535,1.8954 -6.61762,2.5078 -20.46018,4.6369 -3.60937,0.5552 -7.87023,1.413 -9.46856,1.9062 -1.59833,0.4931 -6.4499,0.8454 -10.78125,0.7829 -4.33135,-0.063 -8.92988,0.2996 -10.21894,0.8049 -2.8341,1.1109 -16.22549,2.4388 -16.98042,1.6839 z m 19.32417,-10.4528 c 1.03125,-0.3319 4.61719,-0.9388 7.96875,-1.3487 3.35156,-0.4099 9.89062,-1.2152 14.53125,-1.7893 4.64062,-0.5741 9.28125,-1.4232 10.3125,-1.887 1.03125,-0.4637 4.72676,-1.0365 8.21225,-1.2727 3.48548,-0.2363 6.86048,-0.8423 7.5,-1.3466 0.63951,-0.5043 3.5685,-1.1867 6.50886,-1.5165 4.77556,-0.5355 19.73753,-4.8921 24.65389,-7.1788 1.03125,-0.4796 3.98437,-1.5422 6.5625,-2.3613 2.57812,-0.819 7.21875,-2.7055 10.3125,-4.1922 3.09375,-1.4866 9.84375,-4.562 15,-6.8341 12.22672,-5.3877 27.85166,-15.1122 33.75,-21.0049 3.55693,-3.5535 5.81506,-4.9593 9.36253,-5.8283 2.57127,-0.6298 5.11475,-1.5101 5.65218,-1.9561 1.32558,-1.1001 8.89239,-1.2729 23.15662,-0.5287 9.84721,0.5137 12.41382,0.3673 14.75204,-0.8419 8.12242,-4.2003 1.6338,-14.0189 -9.564,-14.4724 -5.06257,-0.2049 -7.15557,0.9148 -3.98437,2.1317 1.81154,0.6952 1.83816,5.6355 0.0384,7.1291 -4.09088,3.3952 -9.9077,-2.645 -5.97483,-6.2043 2.58092,-2.3356 1.65832,-3.4871 -3.03356,-3.7859 -4.82566,-0.3072 -7.43626,-2.7496 -7.43626,-6.9568 0,-1.4898 -0.42188,-2.7086 -0.9375,-2.7086 -0.51563,0 -0.95518,-0.7383 -0.9768,-1.6406 -0.0487,-2.032 -2.19873,-5.8787 -6.68866,-11.9669 -3.24417,-4.3992 -6.6607,-6.7631 -14.83454,-10.2644 -1.80469,-0.7731 -4.74571,-2.2543 -6.53561,-3.2915 -4.29088,-2.4866 -5.53404,-1.2337 -5.7642,5.8098 -0.29704,9.0902 -13.66596,23.9615 -27.16161,30.2142 -2.57152,1.1914 -5.39702,2.7767 -6.27891,3.5229 -2.87816,2.4356 -8.33674,5.2153 -11.56579,5.8898 -1.73945,0.3633 -4.85013,1.617 -6.91263,2.786 -2.0625,1.1689 -5.4375,2.6511 -7.5,3.2938 -2.0625,0.6426 -4.66814,1.7435 -5.79032,2.4465 -2.07675,1.3009 -12.3552,4.373 -19.99093,5.975 -10.80586,2.2672 -48.54582,6.8372 -49.84272,6.0357 -0.44276,-0.2736 -7.59861,-0.4984 -15.9019,-0.4995 -8.30329,0 -16.20833,-0.4326 -17.56676,-0.9589 -1.35843,-0.5263 -5.84487,-1.0955 -9.96987,-1.2648 -4.125,-0.1694 -9.39844,-0.9693 -11.71875,-1.7776 -2.32032,-0.8083 -5.60339,-1.4758 -7.29574,-1.4833 -1.69234,-0.01 -4.64045,-0.6669 -6.55135,-1.4654 -1.9109,-0.7984 -4.95595,-1.8238 -6.76677,-2.2787 -1.81081,-0.4549 -6.97612,-2.3329 -11.47845,-4.1733 -4.50237,-1.8405 -9.14927,-3.3463 -10.32649,-3.3463 -6.03587,0 -31.64374,-17.0765 -31.64374,-21.1014 0,-0.5848 -1.92774,-3.075 -4.28388,-5.5341 -5.5946,-5.8388 -7.8958,-9.7204 -7.90011,-13.3254 -0.008,-6.8411 -0.94416,-8.7891 -4.22279,-8.7891 -3.44399,0 -12.49493,3.7231 -14.90163,6.1298 -0.87501,0.875 -3.31384,3.0304 -5.41962,4.7897 -4.46368,3.7293 -8.61445,9.2052 -11.97606,15.7993 l -2.38966,4.6875 -6.09375,0.8138 c -3.35156,0.4476 -9.46875,0.8947 -13.59375,0.9933 -14.15202,0.3384 -26.05677,8.2452 -20.53461,13.6384 4.44418,4.3405 10.6331,5.7716 26.66556,6.166 17.65283,0.4342 19.96999,1.0755 27.07179,7.4915 1.97286,1.7824 3.98429,3.2407 4.46986,3.2407 0.48557,0 2.0954,1.2656 3.5774,2.8125 1.482,1.5469 3.24023,2.8125 3.90719,2.8125 0.66696,0 3.54115,1.4895 6.3871,3.31 2.84595,1.8206 5.17446,3.0575 5.17446,2.7487 0,-0.3087 1.16016,0.2469 2.57813,1.2349 3.72049,2.5922 42.79145,21.6269 45.38985,22.1131 1.20355,0.2253 5.35233,1.4481 9.21952,2.7174 21.13465,6.9368 34.422,10.05 45.30599,10.6149 4.67459,0.2428 8.59168,0.5343 8.70464,0.648 0.48988,0.4932 32.88976,-0.2752 34.58312,-0.8202 z m -14.34241,-5.7548 c -12.68671,-0.6182 -10.26804,-5.0665 2.62366,-4.8252 4.38281,0.082 9.55078,-0.1676 11.48437,-0.5545 3.5606,-0.7125 5.72518,3.5552 2.34375,4.6209 -2.35366,0.7418 -9.77514,1.0841 -16.45178,0.7588 z m 35.63014,-2.3692 c -1.96841,-0.6294 -2.98717,-1.507 -2.81107,-2.4214 0.28806,-1.4957 0.85634,-1.6746 13.86709,-4.3641 4.38281,-0.906 10.71094,-2.3935 14.0625,-3.3054 3.35156,-0.9119 8.09505,-1.9041 10.54108,-2.205 2.44603,-0.3008 6.45385,-1.5487 8.90625,-2.773 2.45241,-1.2244 5.93548,-2.5004 7.74017,-2.8357 3.57803,-0.6648 9.21032,-3.0715 18.71343,-7.9964 3.37168,-1.7475 9.08345,-4.6664 12.69282,-6.4865 3.60937,-1.8203 6.77344,-3.5569 7.03125,-3.8591 0.25781,-0.3024 3.65251,-2.1438 7.54378,-4.0921 3.89126,-1.9484 8.11001,-4.4908 9.375,-5.6497 1.26498,-1.159 3.98747,-3.3334 6.04997,-4.832 2.0625,-1.4986 5.4375,-4.2976 7.5,-6.2199 5.66289,-5.278 11.27561,-7.9054 14.11965,-6.6096 3.48417,1.5876 3.01338,5.1285 -1.10456,8.3078 -1.86514,1.4399 -5.97842,4.866 -9.14063,7.6135 -3.1622,2.7476 -7.9643,6.2683 -10.67133,7.8239 -2.70704,1.5556 -4.92188,3.1642 -4.92188,3.5746 0,0.4105 -1.60592,1.3887 -3.56871,2.1741 -1.96278,0.7854 -4.12381,2.0968 -4.80228,2.9143 -0.67848,0.8175 -2.2468,1.4864 -3.48515,1.4864 -1.23836,0 -4.28331,1.3976 -6.76654,3.1057 -2.48324,1.7083 -7.00823,3.8462 -10.05553,4.7512 -3.0473,0.905 -7.24214,2.2495 -9.32188,2.988 -2.07974,0.7384 -4.44014,1.3426 -5.24533,1.3426 -0.80518,0 -2.15962,0.7687 -3.00985,1.7081 -0.85021,0.9396 -4.81795,2.6793 -8.81717,3.8662 -3.99922,1.1869 -9.13943,2.7385 -11.42269,3.4481 -2.28326,0.7095 -6.10123,1.2901 -8.48438,1.2901 -2.38314,0 -4.75598,0.423 -5.27296,0.9399 -0.51699,0.5171 -3.99362,1.3235 -7.72586,1.7921 -3.73223,0.4686 -7.29596,1.2675 -7.9194,1.775 -0.62344,0.5077 -2.61008,1.343 -4.41477,1.8564 -1.80469,0.5133 -3.91406,1.1461 -4.6875,1.4061 -0.77344,0.2602 -2.79552,0.029 -4.49352,-0.5142 z m -71.68429,-1.2456 c -1.30135,-1.3014 -0.70487,-3.914 0.99509,-4.3586 4.04,-1.0564 10.4588,1.5542 8.50166,3.4579 -0.80052,0.7786 -8.8549,1.5426 -9.49675,0.9007 z m 76.33367,-10.7554 c -3.58644,-1.4375 -1.96446,-2.7757 6.768,-5.5839 8.21176,-2.6407 10.88864,-2.7554 10.88864,-0.4662 0,3.7551 -12.60583,8.0744 -17.65664,6.0501 z m 30.46709,-9.9438 c -1.06115,-1.0612 2.35389,-4.0605 4.62327,-4.0605 1.17872,0 2.40386,-0.4219 2.72253,-0.9375 0.31867,-0.5156 1.52482,-0.9375 2.68033,-0.9375 1.15551,0 2.5017,-0.3774 2.99154,-0.8387 1.36698,-1.2874 6.73949,-2.191 7.33146,-1.2332 0.92623,1.4987 -3.04036,4.7771 -6.58428,5.4419 -1.88766,0.3541 -4.52605,1.2147 -5.86308,1.9124 -2.57888,1.3457 -6.85564,1.6992 -7.90177,0.6531 z m 33.13704,-12.0173 c -1.27546,-1.5367 1.23041,-4.1399 7.49001,-7.7806 2.32031,-1.3497 4.42969,-2.7352 4.6875,-3.079 0.45635,-0.6087 5.88322,-3.61 15.13607,-8.3711 4.30734,-2.2163 11.76009,-8.5587 22.67563,-19.2972 2.97586,-2.9276 5.46039,-4.6221 6.44112,-4.3929 5.92035,1.3835 -1.73736,14.9888 -11.13645,19.7858 -1.97181,1.0064 -4.38878,2.7185 -5.37105,3.8045 -0.98225,1.0861 -2.29447,1.9748 -2.91605,1.9748 -0.62157,0 -2.7074,1.0703 -4.63519,2.3786 -1.92779,1.3082 -7.99838,4.7282 -13.49021,7.6 -5.49181,2.8716 -10.407,5.5369 -10.92262,5.9228 -2.52852,1.8922 -6.92819,2.6962 -7.95876,1.4543 z m -7.97416,-10.7858 c -1.66336,-2.6914 9.53444,-10.7156 14.03069,-10.0542 2.8131,0.4138 10.82415,-4.6527 14.60104,-9.2344 0.75003,-0.9097 3.684,-3.1221 6.51994,-4.9162 5.21326,-3.2982 12.11196,-10.0973 12.16089,-11.9854 0.0946,-3.6491 6.23854,-5.2319 8.89867,-2.2925 2.33841,2.584 1.26113,5.8119 -3.00024,8.9899 -1.94043,1.4471 -5.25,4.1382 -7.3546,5.9801 -4.26215,3.7303 -5.16618,4.4472 -12.81335,10.1619 -6.0017,4.485 -8.98397,5.8434 -12.82826,5.8434 -1.55683,0 -5.19068,1.7189 -8.91859,4.2187 -6.06434,4.0666 -10.09091,5.2389 -11.29619,3.2887 z m -288.75458,-11.1384 c -2.86178,-0.6071 -4.53602,-4.8673 -2.65142,-6.7467 1.61042,-1.6059 12.85498,-2.051 14.80182,-0.5859 2.78603,2.0967 0.73009,5.8655 -3.90132,7.1516 -3.84738,1.0684 -4.04556,1.0727 -8.24908,0.181 z m 24.84375,15.7728 c 3.44916,-2.2807 -2.62098,-4.8942 -9.35148,-4.0262 -11.14308,1.4368 -19.58489,0.8088 -25.68705,-1.9109 -6.6758,-2.9755 -7.36323,-3.0188 -6.9798,-0.4394 0.6262,4.2126 4.5995,5.8035 15.5233,6.2151 5.54882,0.2091 10.18526,0.4729 10.30317,0.5861 0.73875,0.7098 15.0436,0.3345 16.19186,-0.4247 z m 373.59375,0.1283 c 1.03125,-0.4675 2.64002,-1.0963 3.57504,-1.3973 3.53107,-1.1364 0.31503,-2.5429 -5.30605,-2.3205 -3.17295,0.1255 -6.7097,-0.085 -7.85945,-0.4693 -1.14975,-0.3835 -2.80878,-0.2954 -3.68673,0.196 -1.06303,0.5949 -3.03557,0.4659 -5.90468,-0.3862 -6.20139,-1.8415 -13.79644,0.7023 -8.74837,2.9303 3.86189,1.7043 24.95251,2.7971 27.93024,1.447 z m -182.8125,-6.8699 c 12.77257,-0.5576 21.69578,-1.3599 23.4375,-2.1072 1.54687,-0.6638 5.19838,-1.4907 8.11447,-1.8376 2.91608,-0.3469 7.45576,-1.449 10.08818,-2.4492 2.63242,-1.0004 6.05303,-1.8187 7.60138,-1.8187 1.54834,0 3.54772,-0.3785 4.44307,-0.8409 0.89535,-0.4626 4.67319,-2.0008 8.39522,-3.4184 3.72202,-1.4176 7.57163,-3.3269 8.55469,-4.2427 0.98306,-0.9158 4.37067,-2.9692 7.52801,-4.5631 5.27983,-2.6652 5.73659,-3.1414 5.69054,-5.932 -0.0276,-1.6688 0.1674,-6.6201 0.4332,-11.0029 0.62187,-10.2542 0.59,-19.5515 -0.26593,-77.5781 -0.13632,-9.2421 -1.18207,-9.7892 -4.48007,-2.3438 -3.96652,8.9547 -3.71998,5.2358 -2.79523,42.1632 0.28049,11.2004 0.1342,20.1226 -0.33468,20.4124 -2.42672,1.4998 -3.76544,-5.8851 -4.03194,-22.2419 -0.14861,-9.1217 -0.55057,-16.8652 -0.89325,-17.2079 -1.07039,-1.0703 -3.50797,0.4019 -4.3566,2.6315 -4.18008,10.9817 -33.00186,32.1379 -50.72231,37.2318 -3.86719,1.1116 -7.875,2.39 -8.90625,2.8408 -3.81186,1.6661 -16.48285,2.4995 -30.9375,2.0349 -11.61312,-0.3733 -33.32752,-7.1713 -42.95692,-13.4482 -3.00131,-1.9565 -5.82391,-3.5572 -6.27247,-3.5572 -6.40724,0 -30.60887,-32.2329 -35.89931,-47.8125 -4.03643,-11.8867 -7.23264,-36.63666 -5.22779,-40.48172 0.4518,-0.86653 0.88836,-4.45247 0.97014,-7.96875 0.09,-3.86934 1.02058,-8.98397 2.35728,-12.95578 1.21473,-3.60938 2.43905,-7.60275 2.72073,-8.87419 0.28168,-1.27144 1.96394,-4.70165 3.73836,-7.62262 1.77443,-2.92107 3.23078,-5.67769 3.23635,-6.12582 0.006,-0.44821 1.79852,-3.35868 3.98437,-6.46781 11.24666,-15.99695 25.8747,-28.36626 41.00551,-34.67379 3.35156,-1.39715 6.32729,-2.91101 6.61272,-3.36414 0.28543,-0.45311 3.4495,-1.50116 7.03125,-2.32898 3.58176,-0.82782 7.35603,-1.85825 8.38728,-2.28984 7.3173,-3.06237 35.71905,-2.81784 42.92637,0.36958 2.97471,1.31555 5.93425,2.19018 6.57676,1.94363 0.64252,-0.24655 3.57644,1.00188 6.51984,2.77429 2.94338,1.77242 6.77065,3.6909 8.50503,4.2633 3.97192,1.31085 11.02464,5.74985 16.81078,10.58074 5.57444,4.65413 7.2249,4.24336 7.33988,-1.82681 0.26761,-14.12854 1.75949,-32.16178 2.91089,-35.18567 1.88311,-4.94551 3.42518,-3.08424 3.49527,4.21875 0.0359,3.73829 0.14103,8.90625 0.23367,11.48438 0.0926,2.57812 0.0505,9.53906 -0.0936,15.46875 -0.46721,19.22412 -0.52484,18.86155 3.89168,24.48691 4.1356,5.26756 5.34966,6.38131 6.6841,6.13165 0.79021,-0.14784 2.02363,-13.38638 1.58619,-17.02481 -0.12399,-1.03125 -0.17797,-11.72828 -0.11996,-23.77118 0.12477,-25.902 -1.14067,-35.95484 -5.0135,-39.82766 -3.16781,-3.16781 -3.04651,-4.0574 0.86817,-6.36712 3.07378,-1.81358 3.24156,-2.16082 2.69517,-5.57778 -1.2954,-8.10096 6.96898,-4.81454 9.40707,3.74082 1.43747,5.04413 1.4216,5.33774 -0.42376,7.83863 -1.96634,2.66485 -1.7688,4.43304 0.49525,4.43304 1.47626,0 9.55432,-9.15322 9.92856,-11.25 0.41973,-2.35167 -1.16208,-10.3125 -2.04908,-10.3125 -0.45709,0 -0.83107,-0.75937 -0.83107,-1.6875 0,-0.92812 -0.35214,-2.08828 -0.78255,-2.57813 -0.4304,-0.48984 -1.50631,-2.85875 -2.39093,-5.26424 -0.8846,-2.4055 -3.52297,-6.41331 -5.86303,-8.90625 -2.34005,-2.49295 -5.30805,-5.76807 -6.59555,-7.27804 -2.01247,-2.36021 -4.32683,-4.12708 -12.36783,-9.44209 -0.78008,-0.51562 -3.91595,-2.73047 -6.9686,-4.92187 -3.05266,-2.19141 -6.20893,-3.98438 -7.01395,-3.98438 -1.57634,0 -4.89256,-2.6179 -4.89256,-3.86231 0,-1.87579 3.64408,-2.67623 6.25907,-1.37484 1.45595,0.72458 4.96749,2.22967 7.80343,3.34465 20.41167,8.02508 33.99749,19.39267 38.96445,32.60252 1.11337,2.96105 3.00481,7.4931 4.2032,10.07123 1.68407,3.62297 2.36704,7.34882 3.00738,16.40625 0.45568,6.44531 1.28859,13.29959 1.85092,15.23174 0.75152,2.58218 0.73449,4.474 -0.0642,7.14002 -1.16447,3.88664 -1.41979,7.92014 -0.55602,8.78391 0.42821,0.4282 1.69419,28.23779 1.52647,33.53183 -0.0892,2.81657 -1.12469,94.0839 -1.39889,123.3006 -0.15495,16.5106 -0.56157,30.472 -0.90359,31.0254 -0.34202,0.5534 -0.18755,2.5792 0.34327,4.5016 0.662,2.3976 0.66169,5.4444 -9.4e-4,9.7009 -0.68289,4.3863 -0.66971,6.5626 0.045,7.4238 0.94271,1.1358 0.46695,7.9327 -0.78333,11.1909 -1.40409,3.6591 2.91751,2.2213 7.37704,-2.4543 l 4.71443,-4.9428 0.0637,-16.5137 c 0.035,-9.0825 0.0112,-22.6308 -0.053,-30.1074 -0.0641,-7.4766 -0.12273,-14.8594 -0.13022,-16.4063 -0.0109,-2.2449 -0.74436,-57.37729 -1.0789,-81.0937 -0.04,-2.83594 -0.0837,-15.07031 -0.0972,-27.1875 -0.0135,-12.11719 -0.15732,-32.78906 -0.31969,-45.9375 -0.16236,-13.14844 -0.30977,-27.4219 -0.32759,-31.71882 -0.0184,-4.44393 -0.4955,-8.37059 -1.10646,-9.10676 -0.59075,-0.7118 -1.41541,-4.04643 -1.83259,-7.41028 -1.82336,-14.70203 -32.67688,-45.51414 -45.57537,-45.51414 -0.38946,0 -3.90107,-1.22835 -7.80358,-2.72966 -14.10622,-5.42672 -21.26877,-6.00343 -26.70521,-2.15027 -6.97478,4.9435 -41.94142,9.74494 -56.39645,7.74407 -3.05598,-0.42301 -5.82052,-0.61506 -6.14342,-0.42676 -0.3229,0.18829 -3.6895,-0.71285 -7.48134,-2.00254 -3.79184,-1.28968 -7.53547,-2.05953 -8.31916,-1.71075 -2.02358,0.90056 -3.81243,0.44006 -6.49868,-1.67294 -2.3337,-1.83568 -8.38712,-1.76491 -10.86373,0.12702 -0.51562,0.39389 -3.88276,1.21929 -7.48252,1.83421 -3.59975,0.61493 -6.97475,1.46642 -7.5,1.8922 -0.52524,0.4258 -3.77552,1.63997 -7.22284,2.69819 -3.44733,1.0582 -8.29889,3.32686 -10.78125,5.04148 -2.48237,1.71461 -5.77901,3.66959 -7.32589,4.34439 -31.07943,13.55802 -40.50172,39.03426 -37.04699,100.16853 0.32637,5.77551 0.31157,12.94738 -0.0329,15.9375 -0.34447,2.99012 -0.23763,11.62201 0.23742,19.18202 0.47505,7.5599 0.52143,15.78647 0.10309,18.28125 -0.6094,3.63403 -0.36975,11.86256 0.67819,23.28581 0.0473,0.51562 -0.15895,4.10156 -0.45834,7.96875 -0.2994,3.86719 -0.57929,12.072 -0.622,18.233 -0.0426,6.1609 -0.45728,12.2002 -0.92131,13.4207 -0.5296,1.393 -0.4822,2.8945 0.12732,4.0334 0.62155,1.1613 0.99136,15.6331 1.0276,40.2119 l 0.0566,38.3975 3.89441,3.2734 c 2.14192,1.8003 6.00098,5.1929 8.57568,7.5392 2.57469,2.3463 5.15388,4.2659 5.73153,4.2659 0.57764,0 2.05702,0.9782 3.28749,2.1737 2.69973,2.6231 14.4301,9.2271 15.1359,8.5214 0.27594,-0.276 2.63132,0.6118 5.23417,1.9728 2.60285,1.3609 6.75964,3.0515 9.2373,3.7567 2.47766,0.7051 7.45796,2.3114 11.06734,3.5696 6.70763,2.3379 17.22912,4.406 31.40625,6.1731 4.38281,0.5464 10.5,1.3643 13.59375,1.8176 7.07424,1.0367 11.08987,1.0274 36.5625,-0.084 z m -127.79049,-84.8533 c -0.45388,-0.9024 -0.86322,-15.3516 -0.90966,-32.1094 -0.0471,-16.984 -0.53599,-33.28041 -1.1047,-36.82162 -1.26143,-7.85438 -1.40058,-15.35879 -0.4211,-22.70963 0.41224,-3.09375 0.58276,-6.04688 0.37893,-6.5625 -0.3097,-0.78347 -0.69803,-29.69199 -1.21528,-90.46875 -0.16218,-19.05589 1.03418,-26.76089 5.1798,-33.35978 1.26858,-2.01931 2.4783,-4.11488 2.68825,-4.65683 1.56323,-4.035 28.12228,-24.79589 31.72095,-24.79589 3.84427,0 1.06316,4.33662 -5.24952,8.18566 -7.3407,4.47587 -21.87093,17.25963 -21.87093,19.24215 0,0.47861 -0.85653,1.95909 -1.90339,3.28997 -1.13287,1.4402 -1.88884,3.77714 -1.86746,5.77286 0.0198,1.84421 -0.22874,8.83749 -0.55222,15.54061 -0.66765,13.83502 -0.66241,13.48121 -0.50002,33.75 0.0661,8.25 0.0924,15.63281 0.0586,16.40625 -0.0509,1.16399 -0.12832,14.84464 -0.16971,30 -0.005,1.80469 0.0669,10.45313 0.15963,19.21875 0.24773,23.41669 -0.91004,93.30095 -1.66574,100.54685 -0.17819,1.7085 -1.80007,1.4327 -2.75646,-0.4687 z M 462.72953,843.85133 c -9.39554,-1.45681 -4.1066,-4.32954 10.39787,-5.64769 7.08613,-0.64398 11.37577,-1.50173 13.26946,-2.65335 l 2.7983,-1.70175 -2.32389,-4.65865 c -1.39287,-2.79222 -4.516,-6.53662 -7.79544,-9.34614 -7.23682,-6.19985 -8.03879,-10.13909 -1.1651,-5.72301 1.92254,1.23516 4.97208,2.71993 6.77677,3.29948 13.45124,4.31972 10.6981,21.81449 -3.85429,24.49207 -3.2942,0.60613 -6.72201,1.47851 -7.61736,1.93862 -1.7538,0.90129 -4.67557,0.90141 -10.48632,4.2e-4 z m -44.40692,240.73637 c 5.30537,-0.5706 10.06801,-1.359 10.58364,-1.7522 0.51562,-0.3932 3.25781,-1.2494 6.09375,-1.9027 4.82262,-1.1109 19.50868,-7.444 21.89659,-9.4425 0.58969,-0.4935 3.95216,-3.0381 7.47215,-5.6546 32.40334,-24.0866 44.91885,-77.96982 25.78023,-110.99195 -0.89652,-1.54688 -3.01945,-5.34066 -4.71763,-8.43075 -3.6296,-6.60441 -20.87236,-24.33032 -26.52509,-27.26828 -2.0625,-1.07198 -6.49219,-3.43063 -9.84375,-5.24145 -7.81074,-4.2201 -17.88211,-8.23321 -22.3138,-8.89135 -6.71415,-0.9971 -31.1923,-0.63082 -32.30653,0.4834 -0.58695,0.58695 -2.14295,1.07175 -3.4578,1.07732 -3.1241,0.0133 -9.86861,2.11213 -14.57812,4.53664 -2.0625,1.0618 -5.96484,2.84542 -8.67188,3.96358 -2.70703,1.11817 -4.92187,2.39442 -4.92187,2.83613 0,0.44169 -2.19338,2.05578 -4.87419,3.58685 -5.38252,3.07408 -17.53037,14.6136 -19.59214,18.61107 -0.72321,1.40212 -2.58055,4.24781 -4.12742,6.32371 -9.46506,12.70229 -18.31254,51.37922 -13.75382,60.12508 0.49471,0.949 1.36541,4.7891 1.93491,8.5334 0.5695,3.7443 1.39836,7.5411 1.84192,8.4375 0.44357,0.8963 1.54245,3.9187 2.44197,6.7164 1.60698,4.998 13.02061,23.507 14.49572,23.507 0.41418,0 1.92249,1.6875 3.3518,3.75 1.42931,2.0625 3.09143,3.75 3.69359,3.75 0.60217,0 2.5487,1.5226 4.32563,3.3834 3.55389,3.7219 8.59962,7.2142 11.96528,8.2814 1.19461,0.3789 5.08881,2.3416 8.65377,4.3618 3.56498,2.0201 6.80633,3.5875 7.203,3.4831 0.39668,-0.1046 3.15321,0.5391 6.12562,1.4303 2.97242,0.8912 8.4476,1.8437 12.16709,2.1167 3.71948,0.2729 6.94766,0.6812 7.17374,0.9073 0.58815,0.5881 1.71726,0.5315 12.48364,-0.6263 z m -25.89671,-8.5966 c -12.38461,-3.6371 -17.97044,-5.7121 -22.52137,-8.3666 -2.61156,-1.5232 -5.24104,-3.0533 -5.8433,-3.4001 -8.97705,-5.1699 -17.06006,-12.7522 -20.92499,-19.629 -1.22733,-2.1837 -2.53882,-3.9704 -2.91442,-3.9704 -0.3756,0 -1.82483,-3.0586 -3.22052,-6.7969 -1.3957,-3.7383 -3.54339,-8.2982 -4.77265,-10.133 -1.38319,-2.0648 -2.59505,-5.8165 -3.17969,-9.8438 -0.51957,-3.5792 -1.27069,-8.6169 -1.66916,-11.1951 -0.79522,-5.14504 -0.66971,-8.40258 0.65021,-16.87495 1.52032,-9.75863 2.09381,-12.05278 4.36274,-17.45194 1.21678,-2.89547 2.41697,-6.393 2.66709,-7.77234 0.49318,-2.71978 7.62005,-13.14141 10.79265,-15.78216 1.078,-0.89728 1.96001,-2.18278 1.96001,-2.85665 0,-2.44725 16.65804,-16.2046 23.20103,-19.16091 1.93474,-0.87417 4.1937,-2.14242 5.01989,-2.81832 0.82619,-0.67591 4.33021,-1.82063 7.7867,-2.54381 3.45651,-0.7232 6.86371,-1.79556 7.57156,-2.38303 1.78567,-1.48197 18.98367,-3.95769 22.98332,-3.30854 1.80469,0.29291 5.39063,0.72392 7.96875,0.95782 23.24796,2.10911 54.96711,27.32516 62.49523,49.68238 1.04172,3.09375 2.22565,6.04687 2.63095,6.5625 6.78818,8.63597 3.94715,41.78705 -5.22166,60.93005 -2.78342,5.8113 -5.06077,11.0435 -5.06077,11.6269 0,3.7508 -20.99303,22.6096 -28.05108,25.1994 -0.8141,0.2987 -2.7458,1.4688 -4.29267,2.6003 -2.68733,1.9656 -10.71837,5.021 -18.75,7.1333 -6.63049,1.7437 -27.19301,1.4963 -33.66785,-0.4051 z m 7.64147,-7.2411 c 0.44122,-2.5556 -1.26111,-4.0458 -3.873,-3.3903 -2.63406,0.6611 -3.14289,2.3168 -1.28345,4.1762 1.51761,1.5176 4.84635,1.0103 5.15645,-0.7859 z m 7.74513,-0.9928 c 0,-0.4853 -0.84375,-0.8822 -1.875,-0.8822 -2.06817,0 -2.55316,1.4755 -0.70313,2.1391 1.41807,0.5087 2.57813,-0.057 2.57813,-1.2569 z m 10.3125,-0.4688 c 0,-0.8039 -0.42188,-1.2008 -0.9375,-0.8821 -0.51563,0.3186 -0.9375,0.9764 -0.9375,1.4615 0,0.4853 0.42187,0.8822 0.9375,0.8822 0.51562,0 0.9375,-0.6577 0.9375,-1.4616 z m 15.03297,-1.8594 c 0.83866,-1.0105 0.90341,-1.7426 0.21502,-2.431 -1.16295,-1.163 -6.17526,1.692 -5.34087,3.0421 0.81993,1.3266 3.81391,0.9697 5.12585,-0.6111 z m -46.28531,-0.9607 c 0.85313,-2.2233 -1.14638,-3.7913 -2.93824,-2.3041 -1.11039,0.9214 -1.20416,1.5149 -0.39369,2.4915 1.40389,1.6915 2.63752,1.6221 3.33193,-0.1874 z m -9.99766,-2.2808 c 0,-2.9871 -2.17284,-3.9566 -3.15153,-1.4062 -0.73989,1.9281 0.26218,4.2187 1.84558,4.2187 0.82605,0 1.30595,-1.0335 1.30595,-2.8125 z m 66.46388,1.525 c 1.42323,-1.7148 0.3267,-4.3375 -1.81351,-4.3375 -2.16269,0 -3.46875,3.6719 -1.70382,4.7902 1.74628,1.1065 2.28043,1.0378 3.51733,-0.4527 z m -34.16307,-6.9074 c 1.01266,-2.6389 -2.49798,-4.592 -10.35439,-5.7605 -3.96355,-0.5895 -9.15185,-1.972 -11.52956,-3.072 -7.6257,-3.5281 -14.16686,-4.6384 -14.16686,-2.4046 0,3.3474 14.99293,10.4721 24.37048,11.5809 2.31784,0.2741 4.39206,0.6761 4.60938,0.8934 1.17457,1.1746 6.50324,0.2422 7.07095,-1.2372 z m 25.61983,-3.7803 c 11.60984,-5.0316 18.50805,-11.869 13.79811,-13.6763 -1.86605,-0.7161 -4.00033,0.1484 -7.96875,3.2278 -1.80469,1.4004 -4.33594,2.8589 -5.625,3.2411 -1.28906,0.3823 -3.81407,1.4797 -5.61112,2.4389 -1.79705,0.959 -4.3399,1.7437 -5.65077,1.7437 -4.49873,0 -8.29499,4.5056 -5.85342,6.9472 1.28228,1.2823 9.06903,-0.5238 16.91095,-3.9224 z m 17.19919,2.1549 c 0.036,-1.5821 -1.73718,-1.5784 -2.34479,0.01 -0.4008,1.0444 -0.13053,1.4201 0.87152,1.2114 0.79886,-0.1663 1.46183,-0.7137 1.47327,-1.2165 z m -83.55733,-0.9056 c 0,-0.743 -0.33655,-1.5589 -0.74789,-1.8132 -1.19934,-0.7411 -3.30487,0.9782 -2.59814,2.1218 0.93019,1.5051 3.34603,1.2822 3.34603,-0.3086 z m 91.45673,-4.3558 c 0.91105,-1.4741 -1.05843,-3.0842 -2.90555,-2.3754 -1.27876,0.4907 -1.35716,0.8666 -0.41697,1.9994 1.37179,1.6529 2.45741,1.7758 3.32252,0.376 z M 360,1047.8438 c 0,-1.5678 -1.90096,-3.4688 -3.46875,-3.4688 -1.26181,0 -1.69466,2.9616 -0.59375,4.0625 1.10091,1.1009 4.0625,0.668 4.0625,-0.5937 z m 56.14839,-2.5125 c 8.0825,-0.9292 15.53204,-3.9599 22.41775,-9.1201 3.37266,-2.5274 13.53569,-14.4219 12.88154,-15.076 -0.22202,-0.2221 0.55241,-1.9394 1.72094,-3.8164 3.63814,-5.8437 4.8284,-11.5458 4.72401,-22.6313 -0.0623,-6.60703 -3.50929,-20.51616 -5.45999,-22.03125 -0.66385,-0.51563 -1.89074,-2.26078 -2.72641,-3.87806 -4.52697,-8.76113 -12.45098,-13.9365 -27.16616,-17.74285 -8.68834,-2.24737 -8.41899,-2.82065 -8.61711,18.34069 l -0.16763,17.90419 3.81582,3.70359 c 2.0987,2.0371 4.57199,3.70369 5.4962,3.70369 3.02504,0 8.00513,-2.60756 9.58492,-5.01863 1.88146,-2.87146 6.67571,-4.18021 8.52796,-2.3279 1.08893,1.0889 0.92976,1.6994 -1.04114,3.993 -3.22925,3.75815 -3.051,7.67315 0.51699,11.35433 2.93232,3.0254 3.03934,6.0617 0.21365,6.0617 -1.84407,0 -7.87825,-3.6737 -9.35278,-5.6941 -1.95447,-2.6781 -13.3754,-3.13284 -13.40356,-0.5337 -0.0154,1.4236 -5.95889,5.2205 -9.16155,5.8527 -3.78947,0.748 -6.60214,-0.6958 -8.4214,-4.323 -1.71088,-3.4111 -1.81442,-3.4446 -11.46794,-3.7062 -7.90136,-0.214 -24.83715,0.5906 -26.95405,1.2808 -3.48722,1.1368 -0.0779,16.3312 5.17443,23.061 6.72272,8.6138 25.63603,21.7686 27.95861,19.446 0.24841,-0.2484 2.01834,0.1077 3.9332,0.7912 4.23453,1.5118 6.82159,1.5737 16.9737,0.4065 z m 51.48771,-4.9515 c 0.21666,-1.125 -0.28821,-1.6298 -1.62986,-1.6298 -1.34165,0 -1.94374,0.6021 -1.94374,1.9437 0,2.4026 3.10297,2.13 3.5736,-0.3139 z m -99.1986,-1.7758 c 0,-1.0432 -7.79663,-13.1717 -9.96221,-15.4971 -1.31032,-1.4071 -5.03779,-15.0007 -5.03779,-18.3721 0,-3.4461 -2.96726,-4.96614 -5.09806,-2.6116 -3.31782,3.6662 5.81466,27.2044 13.45118,34.6693 2.94198,2.8759 6.64688,3.8857 6.64688,1.8115 z m -17.8125,-1.2602 c 0,-0.7735 -0.63281,-1.4063 -1.40625,-1.4063 -1.46397,0 -1.85997,1.1088 -0.78125,2.1875 1.07872,1.0788 2.1875,0.6828 2.1875,-0.7812 z m 106.96762,-5.2555 c 1.49594,-1.6013 2.71988,-3.3292 2.71988,-3.8396 0,-0.5104 0.76246,-2.0478 1.69435,-3.4164 4.76504,-6.9985 9.34596,-25.25489 6.74092,-26.86496 -1.60514,-0.99197 -3.74777,1.39088 -3.74777,4.16796 0,2.9496 -2.53882,10.875 -4.41552,13.7838 -0.71425,1.1071 -1.50751,3.2164 -1.76279,4.6875 -0.25529,1.4711 -1.71179,4.4312 -3.23667,6.5779 -4.75925,6.7003 -3.20864,10.4878 2.0076,4.9038 z m 13.96988,0.568 c 0,-0.8422 -0.84612,-1.3943 -2.10938,-1.3765 -2.0566,0.029 -2.06385,0.065 -0.28956,1.4063 2.25989,1.7092 2.39894,1.7075 2.39894,-0.03 z m -125.7742,-5.5537 c 0.33475,-1.7266 -2.74639,-5.2276 -4.60073,-5.2276 -1.23936,0 -0.39479,4.4132 1.216,6.3541 1.28677,1.5504 2.97465,0.9887 3.38473,-1.1265 z m 132.88637,-2.5045 c 1.75202,-1.936 1.74584,-1.9904 -0.4273,-3.75 -3.98928,-3.2304 -6.60602,-1.5843 -5.36186,3.3727 0.72689,2.8962 3.3546,3.0674 5.78917,0.3773 z M 341.71875,1014.375 c 0,-2.7673 -3.84203,-3.9475 -4.79199,-1.472 -0.93344,2.4325 0.37488,4.4429 2.67842,4.1158 1.54944,-0.22 2.11357,-0.9256 2.11357,-2.6438 z m 140.71183,-2.3559 c 0.63543,-2.5318 -0.88426,-5.1441 -2.99251,-5.1441 -2.21525,0 -4.54396,4.46 -3.18418,6.0984 1.92007,2.3136 5.49514,1.7612 6.17669,-0.9543 z M 339.84375,1001.25 c 0,-2.76731 -3.84203,-3.94753 -4.79199,-1.47197 -0.93344,2.43247 0.37488,4.44287 2.67842,4.11577 1.54944,-0.22 2.11357,-0.9256 2.11357,-2.6438 z M 483.75,1000.7812 c 1.44532,-1.74145 -0.23649,-4.2187 -2.86412,-4.2187 -1.78653,0 -3.29292,3.06816 -2.29731,4.6792 0.87002,1.4076 3.83016,1.1436 5.16143,-0.4605 z m -100.3125,-7.99054 c 19.05519,0.41362 22.20108,-3.39141 22.46017,-27.16566 0.0702,-6.44531 0.21341,-13.19531 0.31815,-15 l 0.19043,-3.28125 -4.41732,0.0562 c -2.51082,0.0319 -5.14086,0.6705 -6.09375,1.47891 -0.92203,0.78225 -3.42152,1.91953 -5.55441,2.52721 -6.62577,1.88794 -19.74145,12.82829 -23.59479,19.68141 -10.47877,18.63628 -8.88676,23.74856 6.84777,21.98972 2.0625,-0.23053 6.49219,-0.35963 9.84375,-0.28697 z m -29.53218,-7.24379 c 0.8983,-3.48046 1.75687,-7.28353 1.90793,-8.45118 0.34449,-2.66297 4.57117,-10.02216 8.09385,-14.09241 2.72749,-3.1515 2.48737,-6.75328 -0.45024,-6.75328 -1.63894,0 -5.33186,2.71772 -5.33186,3.92391 0,0.55284 -1.46586,2.62762 -3.25746,4.61072 -1.7916,1.98309 -3.50495,4.77637 -3.80746,6.20737 -0.3025,1.431 -1.37668,6.02484 -2.38705,10.20863 -2.02856,8.39981 -1.71543,10.67437 1.46955,10.67437 1.84267,0 2.34944,-0.85228 3.76274,-6.32812 z m 116.07612,5.625 c 0.95946,-1.66734 -1.48875,-14.97956 -3.6062,-19.60874 -1.27201,-2.78091 -2.31274,-5.40657 -2.31274,-5.83482 0,-1.15415 -6.28008,-7.60331 -7.40406,-7.60331 -3.50041,0 -2.99358,3.96966 1.71355,13.42163 2.61501,5.25093 5.41697,11.9729 6.22656,14.93775 1.382,5.061 3.90413,7.25737 5.38289,4.6875 z m -131.48291,-2.73862 c 1.11483,-2.93222 0.84919,-5.16216 -0.67543,-5.66972 -1.25404,-0.41756 -3.55858,5.79366 -2.67817,7.21809 1.02682,1.66154 2.36878,1.04185 3.3536,-1.54837 z M 483.75,989.60794 c 0,-2.51691 -1.09542,-4.176 -2.42134,-3.66722 -1.36933,0.52547 -1.81029,3.26512 -0.70366,4.37175 1.11449,1.1145 3.125,0.66122 3.125,-0.70453 z m -1.53597,-12.26419 c 0.73367,-1.91194 -0.25746,-4.21875 -1.8126,-4.21875 -1.53911,0 -3.52675,3.42291 -2.73321,4.70691 0.87491,1.41562 3.94163,1.08628 4.54581,-0.48816 z M 341.71875,974.0625 c 0,-2.76731 -3.84203,-3.94753 -4.79199,-1.47197 -0.93344,2.43244 0.37488,4.44291 2.67842,4.11581 1.54944,-0.22003 2.11357,-0.92568 2.11357,-2.64384 z m 136.43922,-5.196 c 2.01083,-2.42288 -0.44553,-4.00716 -2.84548,-1.83525 -1.46436,1.32525 -1.63627,1.91662 -0.72527,2.49478 1.69164,1.07353 2.21223,0.97744 3.57075,-0.65953 z M 346.40625,963.75 c 0,-2.76731 -3.84203,-3.94753 -4.79199,-1.47197 -0.93344,2.43244 0.37488,4.44291 2.67842,4.11581 1.54944,-0.22003 2.11357,-0.92568 2.11357,-2.64384 z m 127.38322,-2.32856 c 1.92323,-1.45631 1.47943,-4.23394 -0.6765,-4.23394 -1.87675,0 -3.7349,2.52891 -3.09103,4.20684 0.66859,1.74225 1.49467,1.74825 3.76753,0.0272 z M 354.92456,952.0395 c 1.66757,-2.54503 1.11165,-4.227 -1.39709,-4.227 -3.06556,0 -6.85254,6.2175 -4.62536,7.59403 1.51921,0.93891 4.17337,-0.54497 6.02245,-3.36703 z m 96.37803,1.79888 c 0.97809,-2.54888 -2.17027,-6.4396 -7.86509,-9.71954 -16.00959,-9.22067 -26.17927,-12.42314 -28.66324,-9.02611 -2.11355,2.89046 -0.12558,4.9539 5.92546,6.15033 2.96672,0.5865 6.65965,1.71525 8.20653,2.50828 10.79197,5.53238 13.5551,7.18041 15.48706,9.23691 2.46498,2.62388 6.05894,3.066 6.90928,0.85013 z m -74.67112,-3.12891 c 1.64275,-1.50047 5.42818,-3.83719 8.41205,-5.19281 2.98388,-1.35554 6.14509,-2.86219 7.02491,-3.348 0.87982,-0.48591 3.41107,-1.12885 5.625,-1.42885 6.9227,-0.93797 8.0204,-1.30472 8.62559,-2.88178 1.4117,-3.67885 -7.11275,-5.41044 -11.16277,-2.26753 -0.51562,0.40013 -2.625,1.02051 -4.6875,1.37859 -8.41663,1.46129 -22.03125,9.96563 -22.03125,13.76166 0,3.47672 4.37663,3.46528 8.19397,-0.0216 z m 91.64978,-0.55322 c 0,-2.34084 -0.37594,-2.8125 -2.24157,-2.8125 -3.00098,0 -4.64575,2.60166 -2.94236,4.65412 2.11041,2.54288 5.18393,1.45097 5.18393,-1.84162 z m -8.43232,-7.03959 c 1.16667,-1.88775 -0.55724,-4.79954 -2.66383,-4.49944 -3.204,0.45647 -3.4527,5.44528 -0.27145,5.44528 1.29288,0 2.61376,-0.42562 2.93528,-0.94584 z M 363.75,940.3125 c 0,-2.03541 -0.69166,-2.29894 -2.69824,-1.02797 -1.51259,0.95803 -0.60993,2.90297 1.34732,2.90297 0.74301,0 1.35092,-0.84375 1.35092,-1.875 z m 87.5605,-4.98061 c 0.84145,-1.38391 0.61338,-2.04381 -1.22861,-3.555 -2.82207,-2.31524 -5.14342,-1.95416 -5.54448,0.86242 -0.63524,4.46121 4.46495,6.48875 6.77309,2.69258 z m -75.99778,-1.0446 c 0.65789,-1.71442 -1.73121,-3.72557 -3.58204,-3.01535 -1.46013,0.56031 -1.89886,2.62238 -0.79318,3.72806 1.1098,1.1098 3.84696,0.66392 4.37522,-0.71271 z m 64.1675,-7.00397 c -0.42473,-2.18755 -2.39562,-2.23919 -3.5443,-0.0929 -1.56237,2.9193 0.69386,5.69535 2.55748,3.1467 0.68656,-0.93893 1.13063,-2.31316 0.98682,-3.05385 z m -52.46189,1.00262 c 0.24118,-1.63909 -0.16998,-2.03594 -2.10938,-2.03594 -1.74903,0 -2.40895,0.49223 -2.40895,1.79688 0,3.35171 4.02895,3.56488 4.51833,0.23906 z m 42.5641,-3.05685 c -0.34496,-2.93119 -1.5517,-4.03763 -2.7642,-2.53445 -1.25608,1.55723 0.24312,5.74221 1.85248,5.17116 0.64517,-0.22893 1.05545,-1.41545 0.91172,-2.63671 z m -32.2516,-0.69315 c 0.18605,-1.26444 -0.1988,-2.03594 -1.01562,-2.03594 -1.9089,0 -2.42552,0.8004 -1.87513,2.90512 0.61898,2.36697 2.49768,1.80209 2.89075,-0.86918 z m 9.8832,0.30781 c 0.72939,-1.90079 -0.25424,-4.21875 -1.79025,-4.21875 -1.963,0 -2.47301,1.62146 -1.16753,3.71186 1.42074,2.27497 2.22632,2.41302 2.95778,0.50689 z M 420,921.85207 c 0,-0.67489 -0.17644,-1.22707 -0.39207,-1.22707 -0.21565,0 -1.02704,-0.24366 -1.80311,-0.54146 -2.37761,-0.91238 -3.97878,3.20703 -1.8633,4.79379 1.83893,1.37933 4.05848,-0.27517 4.05848,-3.02526 z m 90.05985,52.91355 c 0.0329,-1.67578 0.31026,-4.52343 0.61631,-6.32812 0.60303,-3.55575 0.75932,-18.61509 0.28704,-27.65625 -0.16161,-3.09375 -0.18659,-14.10972 -0.0555,-24.47994 0.24512,-19.39394 -0.10604,-22.86381 -2.31395,-22.86381 -2.14443,0 -4.5463,24.38214 -2.69669,27.37488 0.67685,1.09517 0.86202,6.96158 1.32576,42.00012 0.0853,6.44531 0.35162,12.45703 0.59182,13.35937 0.73013,2.74294 2.18156,1.83385 2.24521,-1.40625 z m 5.78966,-100.00891 c 2.73906,-2.55988 2.88629,-3.01073 2.06552,-6.32471 -1.28176,-5.17522 -3.32003,-4.98836 -7.39059,0.67756 -7.10347,9.88751 -3.40679,13.80777 5.32507,5.64715 z M 404.26959,785.1054 c 0.28578,-0.28578 5.10219,-0.65689 10.70313,-0.82469 13.13573,-0.39355 15.78337,-1.35963 14.96333,-5.45987 -1.05651,-5.28252 -2.5795,-5.93542 -7.00843,-3.00449 -4.803,3.17847 -18.23143,3.08143 -21.81594,-0.15765 -10.37812,-9.378 -6.6322,-27.52765 5.95938,-28.87425 1.69686,-0.18147 5.04927,-0.63878 7.44981,-1.01625 4.02296,-0.63257 4.66509,-0.44484 8.20276,2.39812 4.57069,3.6731 4.39337,3.79726 5.02588,-3.51881 0.65866,-7.61866 0.52498,-7.69338 -12.46652,-6.96903 -5.94593,0.33152 -12.69593,0.27003 -15,-0.13664 -2.30409,-0.40667 -6.50955,-0.89704 -9.34549,-1.08971 -2.83594,-0.19266 -6.34387,-0.80915 -7.79541,-1.36997 -8.87673,-3.42962 -9.51255,-1.6543 -8.69057,24.26592 0.6285,19.82 0.59165,19.72929 8.76411,21.56938 2.95797,0.666 8.33124,1.95926 11.94062,2.87391 7.50631,1.90218 8.3968,2.03057 9.11334,1.31403 z m 44.52381,-11.85109 c 1.0824,-1.34681 1.04223,-38.73118 -0.0428,-39.81619 -3.75607,-3.75607 -8.03041,6.17867 -8.21294,19.08914 -0.29454,20.83217 2.51081,27.87535 8.25572,20.72705 z m -30.76012,-7.4567 c 3.21704,-9.22841 -5.24029,-15.33434 -12.11577,-8.74722 -3.06614,2.93756 -3.30241,3.92979 -1.74806,7.34121 2.38343,5.23105 12.18394,6.22498 13.86383,1.40601 z m -0.39753,-35.45193 c 0.32995,-0.53387 3.35096,-0.97068 6.71337,-0.97068 6.37273,0 21.54812,-4.50935 23.03218,-6.84398 3.57392,-5.62226 -6.94346,-10.03805 -11.30516,-4.74655 -6.45057,7.82565 -39.0272,8.57603 -47.54737,1.09522 -3.60443,-3.16474 -8.76167,-3.10673 -12.77577,0.1437 -3.83862,3.10833 2.71934,9.41289 9.69901,9.32424 1.72795,-0.0219 6.06903,0.51665 9.64683,1.19686 8.42203,1.60121 21.74964,2.07501 22.53691,0.80119 z M 407.10497,710.4365 c 0.25768,-2.68181 0.10476,-6.14435 -0.33983,-7.69454 -0.50179,-1.74968 -0.41931,-4.07798 0.2175,-6.13963 0.62157,-2.01225 1.21137,-16.8065 1.49659,-37.53983 0.56143,-40.81068 0.5205,-32.51725 0.34008,-68.90625 -0.0818,-16.5 -0.0711,-34.64063 0.0238,-40.3125 0.0949,-5.67188 0.0452,-19.41919 -0.1105,-30.54957 -0.15571,-11.1304 0.0551,-20.78435 0.4685,-21.45323 0.4134,-0.66888 0.85739,-17.5075 0.98665,-37.41917 0.12926,-19.91167 0.5315,-38.96579 0.89387,-42.34249 0.77398,-7.21232 0.18459,-8.04204 -6.06038,-8.53153 -6.31704,-0.49514 -6.41336,-0.0612 -7.01088,31.5844 -0.28194,14.932 -0.72958,37.06315 -0.99475,49.18034 -2.0079,91.75133 -3.50702,179.6098 -3.43925,201.5625 0.029,9.38262 -0.36008,13.82175 -1.50412,17.16222 -1.9514,5.69787 -1.26694,6.24125 7.88655,6.26093 l 6.6776,0.0143 0.46852,-4.876 z m 21.1814,3.65185 c 0.70571,-0.85033 0.88438,-11.37123 0.58508,-34.45313 -0.23699,-18.27593 -0.39993,-37.86959 -0.36211,-43.54147 0.0378,-5.67188 0.0357,-11.15625 -0.005,-12.1875 -0.0404,-1.03125 -0.24735,-13.6875 -0.45992,-28.125 -0.21256,-14.4375 -0.65107,-40.80469 -0.97447,-58.59375 -0.48518,-26.68805 -1.05536,-75.51624 -1.38248,-118.38879 -0.0626,-8.21378 -1.66506,-11.64884 -3.81285,-8.17365 -0.73444,1.18835 -2.37817,12.86373 -2.02053,14.35176 0.10022,0.41695 0.15129,6.53413 0.11352,13.59375 -0.0378,7.05962 -0.0723,13.67943 -0.0767,14.71068 -0.0665,15.55866 1.08822,138.14487 1.51443,160.78125 0.31552,16.75781 0.70521,45.75658 0.86598,64.4417 0.29679,34.49372 0.53713,36.8083 3.82211,36.8083 0.64717,0 1.63385,-0.55087 2.19262,-1.22415 z m -3.70999,-315.44321 c 0.54387,-1.01623 0.73518,-17.76572 0.48989,-42.89063 -0.22135,-22.67279 -0.32566,-43.96545 -0.2318,-47.31701 0.0939,-3.35156 0.14321,-7.14844 0.10963,-8.4375 -1.44403,-55.44905 -1.96806,-105.93803 -1.13049,-108.91996 1.12406,-4.00188 -0.6256,-5.19393 -8.66574,-5.90396 -10.08675,-0.89079 -9.93454,-1.21415 -10.58745,22.49159 -0.28385,10.30622 -0.72149,22.86093 -0.97252,27.89935 -0.25102,5.03843 -0.65844,20.01499 -0.90536,33.28125 -0.24692,13.26626 -0.65868,27.91735 -0.91501,32.55798 -0.25632,4.64062 -0.67687,17.92969 -0.93453,29.53125 -0.25766,11.60156 -0.73179,29.95312 -1.05364,40.78125 -0.84243,28.34302 -0.97047,27.65625 5.15625,27.65625 8.38551,0 8.07486,4.39198 7.8705,-111.27287 -0.16875,-95.51342 -0.18263,-95.12713 3.3752,-93.89389 0.58814,0.20386 1.12221,15.71117 1.4479,42.04176 0.28383,22.94531 0.86863,44.46094 1.29956,47.8125 0.43092,3.35156 0.57382,10.10156 0.31756,15 -0.25627,4.89844 -0.43833,10.17187 -0.40458,11.71875 0.0672,3.08008 0.0269,28.86024 -0.0498,31.875 -0.29643,11.64876 1.83941,55.32628 2.78502,56.95312 0.70364,1.21057 2.07068,0.7711 2.99941,-0.96423 z m 83.27241,-140.87623 c 18.90378,-8.96814 33.88253,-23.59403 42.20054,-41.20641 4.32578,-9.15932 7.21449,-17.02082 7.045,-19.1727 -0.0833,-1.05657 0.31453,-3.60855 0.88388,-5.67105 1.24553,-4.51196 1.08683,-25.1825 -0.19674,-25.625 -0.49855,-0.17188 -0.90647,-1.08702 -0.90647,-2.03366 0,-2.39539 -2.43479,-11.65004 -4.68215,-17.79685 -1.03419,-2.82867 -1.88035,-5.22004 -1.88035,-5.31417 0,-2.53332 -7.52352,-4.26881 -15.32715,-3.5356 -4.7185,0.44335 -14.48535,0.82503 -21.7041,0.8482 -7.21875,0.0232 -19.875,0.37979 -28.125,0.79247 -16.33368,0.81706 -15.42362,0.48853 -20.227,7.30196 -1.88875,2.67912 -4.36353,1.83759 -5.67706,-1.93043 -1.176,-3.37348 -3.76547,-4.3592 -7.4463,-2.83454 -3.87092,1.60338 -3.78402,1.71407 6.62949,8.44464 14.29025,9.23622 16.95162,11.28811 17.90979,13.80828 1.3366,3.51552 -0.42048,4.90595 -6.19964,4.90595 l -4.93739,0 0.35489,10.07812 c 0.3875,11.00388 1.86506,22.66719 3.38486,26.71875 1.07424,2.86378 1.88914,3.0603 6.30567,1.5207 5.2296,-1.82305 6.89264,0.99665 2.79512,4.73915 -1.73472,1.58443 -3.6477,2.88078 -4.25106,2.88078 -1.80393,0 -2.26038,2.65331 -0.72123,4.19246 2.54363,2.54364 10.47055,-0.80714 19.17145,-8.10392 4.16341,-3.49154 8.37716,-4.73248 8.37716,-2.46706 0,2.39748 -5.22968,8.49045 -9.30921,10.8459 -2.3565,1.36062 -4.49548,2.75105 -4.75329,3.08986 -0.25781,0.33882 -2.15625,1.1513 -4.21875,1.80554 -9.14751,2.90164 -9.19432,2.97234 -5.84395,8.82858 2.72568,4.76435 4.60487,5.93184 7.42354,4.61208 1.19372,-0.55892 3.09214,-1.38319 4.21869,-1.83171 3.86436,-1.53852 17.32142,-13.95441 21.79646,-20.11006 8.42078,-11.58325 11.95503,-11.41527 10.17642,0.48366 -0.33618,2.24905 5.59003,3.946 7.37734,2.11249 C 531.70802,213.82059 540,190.11396 540,182.38588 540,180.64918 540.49512,180 541.81967,180 c 2.55217,0 2.93432,0.99916 2.9449,7.69967 0.0169,10.67136 -1.47512,16.12148 -7.67945,28.05297 -0.97494,1.8749 -1.77262,4.04738 -1.77262,4.82774 0,6.2619 -25.14599,27.76936 -37.30846,31.91007 -6.6246,2.25535 -7.62637,3.02501 -7.00916,5.3852 1.42733,5.45814 5.17382,5.43442 16.85391,-0.10674 z M 119.84021,235.20029 c 4.98632,-0.57734 9.48791,-1.37984 10.00354,-1.78334 0.51562,-0.40349 2.83594,-1.234 5.15625,-1.84558 36.30028,-9.56787 62.9565,-51.34519 58.15955,-91.15135 -0.93652,-7.77146 -6.63289,-26.51543 -8.48501,-27.92002 -0.33995,-0.25781 -1.78183,-2.47266 -3.20416,-4.92187 -1.42232,-2.44922 -2.91665,-4.45313 -3.32072,-4.45313 -0.40408,0 -1.27246,-1.29831 -1.92974,-2.88512 -0.65729,-1.586821 -2.18067,-3.530924 -3.3853,-4.320224 -1.20464,-0.789309 -4.85263,-4.045584 -8.10664,-7.23617 -3.25403,-3.190587 -7.37167,-6.382643 -9.15032,-7.093459 -1.77865,-0.710817 -4.30723,-2.029378 -5.61906,-2.930137 -10.84523,-7.446796 -49.02185,-12.806859 -55.36335,-7.773111 -0.7227,0.573665 -3.431593,1.280552 -6.019763,1.570859 -20.296183,2.276561 -51.306076,34.202472 -56.28915,57.951902 -0.259271,1.23569 -0.926161,4.35608 -1.481978,6.93421 -3.910096,18.13675 2.185001,54.75185 9.57003,57.49007 0.448822,0.16641 2.074454,2.48673 3.612516,5.15625 9.906594,17.19429 36.939981,33.69011 57.254725,34.93693 3.25818,0.19998 6.13983,0.57946 6.40367,0.84329 0.67549,0.67551 1.95393,0.61575 12.19491,-0.57 z M 42.794432,184.67334 c -2.911938,-3.10154 -5.297619,-5.94919 -5.301514,-6.32812 -0.02598,-2.52741 -2.116102,-12.98894 -2.753485,-13.78182 -1.536567,-1.91143 -2.164441,-10.55372 -0.829125,-11.41241 1.840027,-1.18324 15.339882,-3.06561 22.313241,-3.11127 3.337015,-0.0218 8.82139,-0.85296 12.1875,-1.84692 8.353574,-2.46668 23.045795,-4.75505 33.776451,-5.2608 4.89844,-0.23087 10.59375,-0.61926 12.65625,-0.86308 2.0625,-0.24382 9.65625,-0.61384 16.875,-0.82226 7.21875,-0.20843 14.39062,-0.89207 15.9375,-1.51922 1.67785,-0.68025 8.35558,-1.21282 16.55241,-1.32011 l 13.73991,-0.17984 2.90071,2.59179 c 6.86102,6.13032 2.71308,7.79316 -22.88053,9.17245 -10.82813,0.58356 -21.58594,1.43859 -23.90625,1.90006 -2.32031,0.46148 -6.91114,0.85743 -10.20185,0.87988 -4.36962,0.0298 -6.83351,0.56642 -9.13666,1.98985 -2.70791,1.67357 -3.60407,1.80032 -6.34148,0.8969 -1.75335,-0.57866 -5.44654,-0.84194 -8.20708,-0.58507 -2.760555,0.25686 -11.176263,0.72082 -18.701586,1.031 -14.48537,0.59707 -24.410011,2.66867 -24.798407,5.17626 -0.11719,0.7566 -0.862518,3.69595 -1.656284,6.53189 -0.793768,2.83594 -1.727437,8.53125 -2.074821,12.65625 -0.992825,11.78926 -2.45875,12.39652 -10.1499,4.20459 z m -6.680908,-45.18338 c -0.581341,-1.67944 -0.03912,-8.32027 0.864152,-10.58371 2.193129,-5.49559 4.853344,-10.46827 7.452791,-13.93133 1.602305,-2.13464 3.496682,-5.01286 4.209724,-6.39604 0.713042,-1.38318 2.699361,-4.00224 4.414042,-5.82011 1.714681,-1.81789 3.954657,-4.904948 4.977727,-6.860132 C 61.576527,89.124614 81.269377,77.8125 89.517458,77.8125 c 1.776234,0 5.037226,-0.58445 7.246651,-1.298776 7.528581,-2.434058 15.027581,-3.357987 19.485891,-2.400802 2.32031,0.498165 8.32827,1.52347 13.35102,2.278457 9.73092,1.462692 21.16736,6.007065 24.52866,9.746682 0.98225,1.092816 2.11981,1.986939 2.52789,1.986939 2.81876,0 12.17504,7.007484 14.3801,10.770131 1.36338,2.326429 2.8773,4.229869 3.36426,4.229869 0.48698,0 1.52426,1.37109 2.30508,3.04688 0.78082,1.67578 2.75345,5.15625 4.38361,7.73437 2.69801,4.26693 3.62312,7.16758 5.15773,16.17187 l 0.51928,3.04688 -4.29723,0 c -3.73965,0 -4.47028,-0.33453 -5.63069,-2.57813 -1.97935,-3.82694 -8.36595,-8.54973 -14.13587,-10.45325 -2.80088,-0.92401 -6.27771,-2.47594 -7.7263,-3.44872 -8.47704,-5.69266 -16.28057,-7.83308 -29.80678,-8.17569 -7.34429,-0.18603 -12.37692,0.12375 -14.53125,0.89445 -1.81267,0.64847 -4.93424,1.19756 -6.93683,1.22019 -8.063374,0.0911 -25.62163,11.64628 -35.051433,23.06747 -4.60204,5.5739 -30.990274,10.30906 -32.537723,5.83864 z M 518.36946,229.09232 C 521.10922,225.60927 520.83102,225 516.50087,225 c -4.63431,0 -7.43837,1.36718 -7.43837,3.62674 0,3.93627 6.32791,4.25283 9.30696,0.46558 z M 713.62258,211.875 c 4.73263,0 25.04267,-6.35826 27.82234,-8.71006 0.8381,-0.7091 3.76016,-2.63468 6.49345,-4.27907 4.9945,-3.00476 10.47871,-7.4967 13.23529,-10.84059 0.81543,-0.98916 2.97282,-3.52041 4.79421,-5.625 9.6675,-11.17064 17.19738,-28.71814 18.33725,-42.73278 0.31453,-3.86719 0.76795,-7.35231 1.00759,-7.74471 0.60563,-0.99167 -1.45385,-18.55379 -2.44493,-20.84904 -0.44529,-1.03125 -1.76725,-4.61719 -2.93768,-7.96875 -2.52649,-7.23465 -9.43458,-19.954372 -12.98351,-23.90625 -1.38915,-1.546875 -3.72585,-4.451345 -5.19267,-6.454378 -1.46682,-2.003033 -3.8143,-4.300374 -5.21663,-5.105202 -1.40234,-0.804829 -3.32707,-2.619973 -4.2772,-4.033655 -0.95013,-1.413681 -3.42938,-3.503235 -5.50943,-4.643454 -2.08005,-1.140219 -4.56448,-2.748729 -5.52096,-3.574468 -0.95648,-0.825738 -1.91012,-1.387326 -2.1192,-1.247972 -0.20908,0.139353 -1.53588,-0.330836 -2.94845,-1.044866 -10.28485,-5.198832 -34.1152,-8.375747 -45.22455,-6.02906 -6.01014,1.269554 -14.20982,3.499432 -16.40625,4.46163 -1.03125,0.451764 -4.61719,2.008097 -7.96875,3.45852 -13.78964,5.967603 -23.04416,13.967125 -35.06481,30.30969 -3.23163,4.393553 -9.79241,21.482785 -10.43645,27.184465 -0.20385,1.80469 -0.74336,5.49033 -1.19891,8.19031 -0.87891,5.20929 -0.34959,23.83116 0.69989,24.62219 0.34204,0.25781 1.36437,3.21094 2.27182,6.5625 1.91077,7.05717 9.00519,22.45009 11.53228,25.02185 0.95008,0.96688 3.18498,3.64266 4.96643,5.94618 3.15725,4.08253 18.94375,18.68954 20.40385,18.8794 0.40268,0.0523 2.39012,1.51435 4.41652,3.24889 2.02641,1.73452 4.0387,3.15368 4.47176,3.15368 0.43306,0 2.45811,1.05469 4.50012,2.34375 4.07265,2.57095 6.60905,2.91605 9.2608,1.26 1.24266,-0.77605 2.78968,-0.81614 5.44876,-0.1412 2.04236,0.51841 7.04603,1.03078 11.11924,1.13859 4.07322,0.1078 7.59915,0.38931 7.8354,0.62556 0.23625,0.23625 0.85846,6.4e-4 1.38267,-0.52357 0.52422,-0.52422 2.97704,-0.95313 5.45071,-0.95313 z m -24.09133,-10.18199 c -2.0625,-0.36989 -5.01563,-1.3441 -6.5625,-2.16492 -5.08021,-2.69573 -12.12323,-5.34108 -15.81854,-5.94144 -4.02736,-0.65431 -7.14994,-2.28489 -7.15072,-3.73404 -2.7e-4,-0.5205 -3.41102,-4.06562 -7.57945,-7.87805 -8.66388,-7.92395 -11.46004,-12.39886 -9.17517,-14.68371 1.97133,-1.97133 3.97308,-0.93778 6.97797,3.60292 4.43578,6.70292 12.32992,12.85623 16.49338,12.85623 0.99791,0 3.10451,0.66714 4.68131,1.48254 5.63004,2.91141 8.63191,0.52437 5.90843,-4.69829 -1.88756,-3.61967 -0.17521,-5.79098 3.47304,-4.40391 3.96948,1.50919 20.53471,3.13433 24.12145,2.36645 1.85944,-0.39809 4.88012,-0.61641 6.71265,-0.48516 2.75365,0.19723 4.23432,-0.50433 8.53239,-4.04275 2.86031,-2.35476 5.88314,-4.28138 6.71741,-4.28138 0.83428,0 3.24307,-0.89975 5.35288,-1.99944 5.2148,-2.71811 8.40922,-1.44455 8.40922,3.35261 0,3.41068 1.91232,5.26148 5.32899,5.15755 2.49894,-0.076 8.11883,-8.316 14.03149,-20.57322 5.57018,-11.54725 5.61739,-11.68477 6.88575,-20.05732 0.92724,-6.12076 1.91048,-7.67837 4.27435,-6.77127 1.88168,0.72207 1.41374,22.15412 -0.53496,24.50216 -0.58917,0.70991 -1.29075,2.68393 -1.55908,4.38671 -0.76484,4.85363 -5.92387,13.2933 -9.85197,16.11688 -1.96602,1.41319 -3.57457,2.90369 -3.57457,3.31221 0,2.34814 -10.74039,11.1351 -18.75,15.33979 -4.89844,2.57147 -9.30703,5.04 -9.79688,5.48562 -0.48984,0.44563 -3.49691,0.81022 -6.68238,0.81022 -3.18547,0 -7.21502,0.59467 -8.95455,1.3215 -3.82152,1.59673 -16.72371,2.55159 -21.90994,1.62151 z m 5.80401,-31.74484 c -7.24242,-1.08876 -3.57221,-4.81935 4.69442,-4.77166 3.2618,0.0188 6.45277,-0.38635 7.09106,-0.90039 0.63828,-0.51403 2.63707,-1.23563 4.44176,-1.60353 6.44708,-1.31431 15.53931,-8.29663 22.23519,-17.07539 3.38543,-4.43852 6.59003,-4.1265 5.92344,0.57673 -0.29948,2.11298 -8.18417,11.32198 -12.15924,14.20151 -1.99358,1.44415 -3.88271,3.0432 -4.19806,3.55346 -0.31536,0.51025 -2.78326,1.62991 -5.48423,2.48812 -2.70097,0.85822 -6.24023,2.15609 -7.86503,2.88418 -2.79824,1.25392 -8.86364,1.52125 -14.67931,0.64697 z m 46.90787,-8.64167 c -0.74141,-2.83517 3.04429,-7.9607 6.14653,-8.32189 3.05401,-0.35559 3.29012,1.40087 0.85901,6.39039 -1.92937,3.95977 -6.16943,5.12879 -7.00554,1.9315 z m -44.80835,-9.97883 c -2.01248,-2.42489 0.0916,-4.60892 4.4401,-4.60892 2.63727,0 4.55084,-0.71648 6.66843,-2.49682 3.49017,-2.93431 6.76919,-2.65615 6.76919,0.57426 0,5.69646 -14.25002,10.90258 -17.87772,6.53148 z m 3.13531,-18.96114 c -0.63177,-0.40136 -1.26458,-1.76599 -1.40625,-3.03251 -0.33228,-2.97045 6.03604,-3.56554 6.60386,-0.61711 0.60676,3.15064 -2.52341,5.34856 -5.19761,3.64962 z m -396.54057,45.16646 c 0.56287,-0.56288 -0.86101,-4.03641 -2.06315,-5.03299 -3.74975,-3.10858 -11.42138,-18.70913 -13.28111,-27.00764 -0.53843,-2.40258 -1.61162,-5.0674 -2.38487,-5.92184 -4.3338,-4.7888 -9.09842,-66.279116 -5.57716,-71.976639 0.31706,-0.513016 0.77735,-2.917928 1.02286,-5.344249 0.24551,-2.426323 0.85189,-5.928982 1.34749,-7.783688 0.4956,-1.854707 1.12168,-5.059694 1.39127,-7.122194 0.46757,-3.577187 2.68731,-11.207535 5.31817,-18.28125 0.6712,-1.804688 2.75585,-5.390625 4.63256,-7.96875 7.86015,-10.797839 3.18386,-11.7858603 -11.85034,-2.50378 -3.90076,2.408328 -8.09917,4.920462 -9.32977,5.582518 -1.23061,0.662057 -3.58998,2.560494 -5.24305,4.21875 -1.65306,1.658256 -4.37131,3.858762 -6.04055,4.890012 -2.86687,1.771141 -11.65937,10.882925 -11.65937,12.082759 0,0.306497 -1.47668,2.491811 -3.28149,4.856254 -1.80482,2.364442 -3.54251,5.426686 -3.86153,6.804987 -0.31903,1.3783 -1.19976,3.496987 -1.95719,4.708193 -1.66632,2.664615 -5.12118,12.482668 -4.58217,13.021675 0.21173,0.211737 -0.36431,3.005096 -1.28011,6.207466 -1.88024,6.574853 -2.62668,26.849916 -0.98849,26.849916 0.52304,0 0.95555,0.94922 0.96112,2.10938 0.0121,2.5047 2.24261,10.1625 4.30092,14.76562 2.87525,6.43012 7.19367,14.54618 8.23066,15.46875 0.57957,0.51562 2.25465,2.83594 3.72241,5.15625 3.55867,5.62574 16.04594,17.35549 20.92769,19.65816 2.15082,1.01451 4.16703,2.25951 4.48047,2.76666 1.0194,1.64942 12.3992,6.78116 18.95879,8.54951 7.54685,2.03448 7.33089,2.0012 8.08594,1.24616 z M 262.7086,61.35309 C 260.05696,59.495812 259.95216,55.047842 262.5,52.5 c 3.55764,-3.557647 9.39149,-1.669806 9.34381,3.023671 -0.0602,5.927707 -4.73548,8.911112 -9.13521,5.829419 z m 60.88118,112.64893 c 4.11576,-3.14264 9.52663,-11.64449 10.51892,-16.52792 0.25903,-1.27482 1.33314,-5.24921 2.38691,-8.83198 1.05376,-3.58278 2.11717,-8.1837 2.36314,-10.22428 0.24596,-2.04058 0.85967,-5.85922 1.36381,-8.48586 2.74952,-14.32564 2.98473,-17.36596 1.55706,-20.12677 -0.76579,-1.48087 -1.21873,-2.8661 -1.00654,-3.0783 0.2122,-0.21219 0.63732,-6.48833 0.94471,-13.94698 0.30741,-7.458648 0.77821,-14.299461 1.04623,-15.201805 0.26804,-0.902344 0.037,-1.640625 -0.51334,-1.640625 -0.57144,0 -1.00068,-1.946813 -1.00068,-4.538502 0,-2.496176 -0.62825,-6.609458 -1.39611,-9.140625 -0.76785,-2.531168 -1.40066,-6.066783 -1.40625,-7.856922 -0.0464,-14.898384 -8.54886,-21.533782 -17.82264,-13.909031 -3.73712,3.072596 -4.03651,3.300208 -8.22521,6.25316 -1.68793,1.189957 -4.46576,4.342596 -6.17294,7.005863 -4.59844,7.173735 -5.26783,7.554601 -9.97047,5.672977 -3.33991,-1.33637 -4.06949,-1.377123 -4.77263,-0.266594 -2.51477,3.971718 1.63848,8.506849 8.985,9.811152 2.0625,0.366177 4.80469,1.38339 6.09375,2.260473 1.28906,0.877084 4.875,2.778753 7.96875,4.225932 9.34801,4.372767 11.31458,5.513798 14.76815,8.568637 10.01394,8.857812 3.26738,12.582711 -9.73218,5.373323 -22.00691,-12.204746 -26.1014,-12.153055 -26.25019,0.331396 -0.0294,2.469506 -0.43849,6.285014 -0.90901,8.478914 -0.47052,2.193897 -0.81586,8.522027 -0.76741,14.062497 0.0485,5.54048 0.0636,11.55016 0.0336,13.35485 -0.055,3.31405 0.99535,7.50308 3.17352,12.65625 0.65384,1.54687 2.14613,5.55469 3.3162,8.90625 1.17006,3.35156 2.48373,6.49453 2.91924,6.98437 0.43552,0.48985 0.80515,1.96641 0.82141,3.28125 0.0304,2.45306 2.58461,5.96926 10.70018,14.72989 5.47188,5.90681 5.60296,5.92852 10.98503,1.81901 z m 105.53072,2.0136 c 1.87379,-2.40619 0.95261,-29.22201 -1.01696,-29.60398 -2.32099,-0.45011 -3.81949,1.18475 -3.0128,3.28695 0.89078,2.32134 0.99738,19.94406 0.13678,22.61203 -1.09435,3.39261 1.90978,6.2517 3.89298,3.705 z m -15.52312,-0.55161 c 3.56521,-0.15698 5.76494,-3.95353 3.97177,-6.85494 -0.61156,-0.98954 -0.5895,-6.26136 0.0641,-15.32782 0.11152,-1.54688 0.51984,-3.9543 0.90738,-5.34983 0.77767,-2.8004 -0.79435,-3.60713 -6.50942,-3.34047 -1.54687,0.0722 -3.8989,-0.18504 -5.22672,-0.5716 -3.26721,-0.95117 -8.81528,3.95154 -8.09618,7.15441 0.26024,1.15911 0.19114,5.62259 -0.15356,9.91881 -0.3447,4.29623 -0.30116,8.01254 0.0967,8.25846 0.39791,0.24592 0.72347,1.39254 0.72347,2.54805 0,3.85281 1.14811,4.14059 14.22238,3.56493 z m 20.3898,-36.88454 c 1.31436,-0.82083 1.57991,-1.61916 1.02453,-3.07993 -0.95696,-2.51699 0.73137,-4.90091 3.77503,-5.33031 6.25758,-0.88283 2.62495,-6.57206 -6.13049,-9.60122 -22.8887,-7.91891 -50.07816,0.46773 -43.34556,13.37003 1.34043,2.56878 8.35498,5.26974 11.35981,4.3741 6.22394,-1.85513 18.89056,-2.08506 24.44259,-0.44367 7.01335,2.07341 6.72901,2.05062 8.87409,0.711 z M 363.75,129.24564 c 5.41406,-0.42009 10.60227,-0.52799 11.52937,-0.23977 2.04982,0.63726 4.40813,-1.14951 4.40813,-3.33984 0,-2.13002 -7.77958,-7.28524 -21.48613,-14.238 -8.26234,-4.19113 -8.2381,-4.2178 -8.81801,9.70302 -0.34974,8.39544 0.40496,10.72019 3.09026,9.51917 0.78794,-0.35242 5.86232,-0.98447 11.27638,-1.40458 z m 62.3605,-21.48593 c 0.62627,-1.97319 -3.02303,-6.39397 -5.45567,-6.60905 -3.34556,-0.2958 -6.99294,0.47377 -9.07947,1.91568 -1.29614,0.8957 -3.09489,1.89489 -3.99723,2.22043 -1.89478,0.68357 -2.1925,3.08429 -0.46875,3.77984 3.9049,1.57566 18.40273,0.5785 19.00112,-1.3069 z"
     id="path4166"
     inkscape:connector-curvature="0" />
</svg>
